<svg id="svg" version="1.1" xmlns="http://www.w3.org/2000/svg" xmlns:xlink="http://www.w3.org/1999/xlink" width="400" height="400" viewBox="0, 0, 400,400"><g id="svgg"><path id="path0" d="M216.974 89.113 C 217.053 90.902,216.938 92.080,216.651 92.426 C 216.303 92.846,216.306 92.963,216.664 92.963 C 216.979 92.963,217.044 93.283,216.872 93.981 C 216.587 95.135,216.183 97.633,215.541 102.222 C 215.299 103.954,214.950 105.558,214.766 105.786 C 214.582 106.015,214.529 106.457,214.648 106.767 C 214.768 107.078,214.687 107.443,214.470 107.577 C 214.252 107.711,214.074 108.302,214.074 108.889 C 214.074 109.476,213.907 110.059,213.704 110.185 C 213.500 110.311,213.333 111.144,213.333 112.037 C 213.333 112.930,213.167 113.763,212.963 113.889 C 212.759 114.015,212.593 114.505,212.593 114.979 C 212.593 115.758,211.831 118.655,211.126 120.556 C 209.116 125.977,208.883 126.941,209.465 127.425 C 209.755 127.665,209.907 127.999,209.803 128.167 C 209.699 128.335,209.909 128.645,210.270 128.855 C 210.631 129.065,210.804 129.242,210.655 129.248 C 210.507 129.254,210.824 130.051,211.360 131.019 C 214.720 137.078,226.452 157.652,226.711 157.938 C 226.891 158.137,227.799 156.641,228.846 154.420 C 238.072 134.848,236.468 120.881,221.914 94.074 C 220.974 92.343,220.168 90.676,220.122 90.371 C 220.076 90.066,219.697 89.539,219.279 89.200 C 218.861 88.862,218.519 88.432,218.519 88.246 C 218.519 88.059,218.144 87.554,217.685 87.122 L 216.852 86.338 216.974 89.113 M168.980 171.759 C 164.828 180.454,163.522 186.265,163.788 194.847 C 163.979 200.984,164.103 201.420,165.415 200.560 C 165.911 200.235,166.483 200.072,166.686 200.197 C 166.889 200.323,167.010 200.263,166.954 200.065 C 166.898 199.866,167.000 199.701,167.181 199.698 C 167.362 199.695,167.612 199.541,167.736 199.355 C 168.220 198.636,170.885 197.082,171.266 197.298 C 171.486 197.423,171.550 197.397,171.408 197.239 C 171.139 196.941,175.600 193.704,176.280 193.704 C 176.493 193.704,176.667 193.573,176.667 193.413 C 176.667 192.941,178.857 191.788,179.269 192.043 C 179.478 192.172,179.602 192.140,179.546 191.972 C 179.490 191.804,179.563 191.618,179.708 191.558 C 179.853 191.499,180.353 191.127,180.819 190.733 C 181.285 190.338,182.057 189.714,182.535 189.347 L 183.402 188.678 182.591 187.302 C 182.144 186.545,181.885 185.926,182.015 185.926 C 182.145 185.926,181.917 185.567,181.509 185.129 C 181.100 184.691,180.854 184.191,180.961 184.018 C 181.067 183.845,180.968 183.704,180.741 183.704 C 180.513 183.704,180.430 183.537,180.556 183.333 C 180.681 183.130,180.611 182.963,180.399 182.963 C 180.187 182.963,179.910 182.546,179.782 182.037 C 179.654 181.528,179.391 181.111,179.197 181.111 C 179.004 181.111,178.948 180.944,179.074 180.741 C 179.200 180.537,179.130 180.370,178.918 180.370 C 178.706 180.370,178.428 179.954,178.300 179.444 C 178.172 178.935,177.909 178.519,177.716 178.519 C 177.522 178.519,177.460 178.363,177.577 178.174 C 177.694 177.984,177.618 177.723,177.408 177.593 C 177.198 177.463,176.774 176.826,176.466 176.178 C 176.158 175.530,175.413 174.167,174.810 173.148 C 174.208 172.130,173.458 170.796,173.144 170.185 C 172.422 168.781,171.645 167.447,171.413 167.216 C 171.315 167.117,170.220 169.162,168.980 171.759 M211.944 198.055 C 215.764 198.115,222.014 198.115,225.833 198.055 C 229.653 197.995,226.528 197.946,218.889 197.946 C 211.250 197.946,208.125 197.995,211.944 198.055 " stroke="none" fill="#52058b" fill-rule="evenodd"></path><path id="path1" d="M184.298 83.410 C 184.645 84.081,187.961 89.963,191.669 96.481 C 195.376 103.000,199.539 110.333,200.919 112.778 C 202.299 115.222,203.565 117.275,203.731 117.339 C 203.897 117.403,204.221 118.028,204.452 118.728 C 204.683 119.427,205.036 120.000,205.236 120.000 C 205.436 120.000,205.496 120.167,205.370 120.370 C 205.244 120.574,205.302 120.741,205.497 120.741 C 205.693 120.741,206.026 121.237,206.238 121.844 C 206.449 122.450,206.966 123.315,207.385 123.765 C 207.805 124.216,208.148 124.810,208.148 125.085 C 208.148 127.579,209.602 125.774,210.604 122.037 C 210.713 121.630,210.937 120.963,211.102 120.556 C 211.748 118.954,212.593 115.796,212.593 114.979 C 212.593 114.505,212.759 114.015,212.963 113.889 C 213.167 113.763,213.333 112.930,213.333 112.037 C 213.333 111.144,213.500 110.311,213.704 110.185 C 213.907 110.059,214.074 109.476,214.074 108.889 C 214.074 108.302,214.252 107.711,214.470 107.577 C 214.687 107.443,214.768 107.078,214.648 106.767 C 214.529 106.457,214.582 106.015,214.766 105.786 C 214.950 105.558,215.299 103.954,215.541 102.222 C 216.183 97.633,216.587 95.135,216.872 93.981 C 217.050 93.259,216.982 92.963,216.636 92.963 C 216.257 92.963,216.247 92.864,216.593 92.519 C 217.401 91.710,217.100 85.615,216.276 86.124 C 216.104 86.230,215.780 85.974,215.556 85.556 C 215.331 85.137,214.990 84.892,214.796 85.011 C 214.603 85.131,214.444 85.073,214.444 84.882 C 214.444 84.586,212.627 83.634,211.759 83.477 C 211.606 83.449,211.398 83.384,211.296 83.333 C 211.194 83.282,210.944 83.199,210.741 83.148 C 210.537 83.097,210.329 83.022,210.278 82.981 C 209.771 82.572,206.934 82.440,196.186 82.325 L 183.668 82.190 184.298 83.410 M222.344 94.907 C 223.587 97.199,224.736 99.130,224.897 99.198 C 225.058 99.267,225.080 99.501,224.945 99.718 C 224.801 99.951,224.875 100.006,225.124 99.852 C 225.418 99.671,225.204 98.997,224.430 97.666 C 223.815 96.607,222.692 94.617,221.934 93.243 C 221.176 91.870,220.449 90.745,220.319 90.743 C 220.190 90.742,221.101 92.616,222.344 94.907 M225.705 101.168 C 225.530 101.453,225.605 101.494,225.932 101.293 C 226.277 101.079,226.359 101.154,226.209 101.544 C 226.085 101.868,226.205 102.099,226.497 102.099 C 226.867 102.099,226.903 101.922,226.634 101.420 C 226.209 100.627,226.064 100.588,225.705 101.168 M232.407 112.222 C 232.723 112.833,233.065 113.333,233.167 113.333 C 233.269 113.333,233.094 112.833,232.778 112.222 C 232.462 111.611,232.120 111.111,232.018 111.111 C 231.916 111.111,232.091 111.611,232.407 112.222 M238.704 123.333 C 239.020 123.944,239.362 124.444,239.463 124.444 C 239.565 124.444,239.390 123.944,239.074 123.333 C 238.758 122.722,238.416 122.222,238.314 122.222 C 238.212 122.222,238.388 122.722,238.704 123.333 M240.185 125.926 C 240.501 126.537,240.843 127.037,240.945 127.037 C 241.047 127.037,240.872 126.537,240.556 125.926 C 240.240 125.315,239.898 124.815,239.796 124.815 C 239.694 124.815,239.869 125.315,240.185 125.926 M241.667 128.519 C 241.983 129.130,242.325 129.630,242.426 129.630 C 242.528 129.630,242.353 129.130,242.037 128.519 C 241.721 127.907,241.379 127.407,241.277 127.407 C 241.175 127.407,241.351 127.907,241.667 128.519 M234.538 129.815 C 234.542 130.630,234.618 130.919,234.706 130.459 C 234.795 129.998,234.792 129.331,234.699 128.977 C 234.606 128.623,234.534 129.000,234.538 129.815 M234.545 134.074 C 234.545 134.991,234.618 135.366,234.706 134.907 C 234.794 134.449,234.794 133.699,234.706 133.241 C 234.618 132.782,234.545 133.157,234.545 134.074 M247.374 138.704 C 248.017 139.960,248.507 140.576,248.513 140.134 C 248.516 139.902,248.176 139.318,247.757 138.837 C 247.158 138.150,247.076 138.122,247.374 138.704 M225.741 160.000 C 225.425 160.611,225.249 161.111,225.351 161.111 C 225.453 161.111,225.795 160.611,226.111 160.000 C 226.427 159.389,226.602 158.889,226.501 158.889 C 226.399 158.889,226.057 159.389,225.741 160.000 M223.704 163.704 C 223.288 164.519,223.031 165.185,223.133 165.185 C 223.235 165.185,223.658 164.519,224.074 163.704 C 224.490 162.889,224.747 162.222,224.645 162.222 C 224.543 162.222,224.119 162.889,223.704 163.704 M221.296 168.148 C 220.980 168.759,220.805 169.259,220.907 169.259 C 221.009 169.259,221.351 168.759,221.667 168.148 C 221.983 167.537,222.158 167.037,222.056 167.037 C 221.954 167.037,221.612 167.537,221.296 168.148 M219.074 172.222 C 218.758 172.833,218.583 173.333,218.685 173.333 C 218.787 173.333,219.128 172.833,219.444 172.222 C 219.760 171.611,219.936 171.111,219.834 171.111 C 219.732 171.111,219.390 171.611,219.074 172.222 M216.667 176.667 C 216.251 177.481,215.994 178.148,216.096 178.148 C 216.198 178.148,216.621 177.481,217.037 176.667 C 217.453 175.852,217.709 175.185,217.608 175.185 C 217.506 175.185,217.082 175.852,216.667 176.667 M214.444 180.741 C 214.029 181.556,213.772 182.222,213.874 182.222 C 213.976 182.222,214.399 181.556,214.815 180.741 C 215.231 179.926,215.487 179.259,215.385 179.259 C 215.284 179.259,214.860 179.926,214.444 180.741 M212.222 184.815 C 211.807 185.630,211.550 186.296,211.652 186.296 C 211.753 186.296,212.177 185.630,212.593 184.815 C 213.008 184.000,213.265 183.333,213.163 183.333 C 213.061 183.333,212.638 184.000,212.222 184.815 M210.000 188.889 C 209.584 189.704,209.328 190.370,209.429 190.370 C 209.531 190.370,209.955 189.704,210.370 188.889 C 210.786 188.074,211.043 187.407,210.941 187.407 C 210.839 187.407,210.416 188.074,210.000 188.889 M207.593 193.333 C 207.277 193.944,207.101 194.444,207.203 194.444 C 207.305 194.444,207.647 193.944,207.963 193.333 C 208.279 192.722,208.454 192.222,208.352 192.222 C 208.251 192.222,207.909 192.722,207.593 193.333 M164.471 273.198 C 162.820 275.298,164.124 277.778,166.879 277.778 C 169.014 277.778,170.000 276.848,170.000 274.836 C 170.000 272.205,166.150 271.065,164.471 273.198 M186.296 277.623 C 186.296 279.779,186.171 281.479,186.019 281.400 C 177.922 277.233,169.974 284.445,173.487 292.773 C 175.272 297.006,180.834 299.032,184.907 296.933 C 186.547 296.089,186.667 296.074,186.667 296.717 C 186.667 297.320,186.972 297.407,189.074 297.407 L 191.481 297.407 191.481 285.556 L 191.481 273.704 188.889 273.704 L 186.296 273.704 186.296 277.623 M151.111 278.519 L 151.111 280.741 149.815 280.741 L 148.519 280.741 148.519 282.593 L 148.519 284.444 149.778 284.444 L 151.037 284.444 151.167 289.233 C 151.357 296.243,153.740 298.687,159.357 297.633 C 161.673 297.199,161.963 296.754,161.264 294.704 L 160.660 292.930 159.105 293.163 C 156.841 293.502,156.527 292.945,156.354 288.286 L 156.212 284.444 158.477 284.444 L 160.741 284.444 160.741 282.593 L 160.741 280.741 158.519 280.741 L 156.296 280.741 156.296 278.519 L 156.296 276.296 153.704 276.296 L 151.111 276.296 151.111 278.519 M164.444 288.889 L 164.444 297.407 167.037 297.407 L 169.630 297.407 169.630 288.889 L 169.630 280.370 167.037 280.370 L 164.444 280.370 164.444 288.889 M193.333 280.492 C 193.333 280.560,194.917 284.329,196.852 288.870 C 200.718 297.940,200.688 297.831,199.630 298.889 C 198.749 299.769,197.613 299.829,196.161 299.072 C 195.578 298.767,195.065 298.519,195.021 298.519 C 194.481 298.519,193.296 302.286,193.687 302.758 C 195.461 304.895,201.616 304.237,203.614 301.697 C 204.189 300.965,210.424 286.891,212.856 280.833 C 212.994 280.489,212.376 280.370,210.449 280.370 L 207.856 280.370 205.722 285.570 C 204.548 288.429,203.477 290.837,203.341 290.921 C 203.205 291.005,202.123 288.666,200.937 285.722 L 198.781 280.370 196.057 280.370 C 194.559 280.370,193.333 280.425,193.333 280.492 M185.149 285.721 C 186.592 287.164,186.557 290.649,185.084 292.121 C 182.681 294.524,178.636 293.018,178.261 289.581 C 177.791 285.282,182.225 282.797,185.149 285.721 " stroke="none" fill="#7c16e7" fill-rule="evenodd"></path><path id="path2" d="M162.775 128.278 C 160.434 129.368,159.101 130.890,156.852 135.036 C 155.868 136.850,154.910 138.435,154.722 138.560 C 154.535 138.685,154.433 138.851,154.497 138.930 C 154.620 139.082,145.581 155.977,145.207 156.296 C 145.088 156.398,144.242 158.065,143.328 160.000 C 141.112 164.694,140.947 168.667,142.808 172.593 C 143.435 173.917,143.963 175.148,143.980 175.329 C 143.997 175.510,144.161 175.760,144.344 175.885 C 144.796 176.191,150.000 185.358,150.000 185.847 C 150.000 186.060,150.138 186.290,150.307 186.358 C 150.475 186.426,152.792 190.398,155.456 195.185 C 158.119 199.972,160.564 204.181,160.890 204.537 C 161.215 204.894,161.395 205.185,161.289 205.185 C 161.025 205.185,162.393 207.789,163.137 208.704 C 163.703 209.400,163.708 209.377,163.217 208.333 C 162.659 207.146,162.687 206.883,163.606 204.709 C 164.034 203.695,164.291 203.438,164.531 203.783 C 164.759 204.110,164.802 204.027,164.667 203.519 C 161.671 192.193,164.170 179.634,172.330 165.000 C 173.012 163.778,174.206 161.611,174.983 160.185 C 177.841 154.944,180.886 149.405,181.703 147.963 C 182.164 147.148,183.112 145.398,183.809 144.074 C 184.507 142.750,185.456 141.000,185.918 140.185 C 186.381 139.370,187.685 136.954,188.816 134.815 C 189.947 132.676,191.230 130.343,191.666 129.630 C 192.103 128.917,192.583 128.125,192.733 127.870 C 193.328 126.864,164.984 127.250,162.775 128.278 M165.556 213.148 C 166.228 214.370,166.947 215.537,167.153 215.741 C 167.359 215.944,166.982 215.111,166.316 213.889 C 165.649 212.667,164.930 211.500,164.718 211.296 C 164.507 211.093,164.883 211.926,165.556 213.148 M195.007 212.215 C 194.643 212.617,194.220 212.868,194.067 212.773 C 193.913 212.678,193.594 212.834,193.357 213.119 C 192.675 213.941,193.526 214.143,194.259 213.333 C 194.619 212.936,195.062 212.702,195.244 212.814 C 195.425 212.926,195.528 212.856,195.472 212.657 C 195.416 212.459,195.495 212.280,195.648 212.259 C 196.189 212.187,195.974 212.783,195.327 213.148 C 194.966 213.352,194.344 213.804,193.946 214.154 C 193.547 214.503,193.038 214.675,192.814 214.535 C 192.026 214.042,191.533 214.157,190.717 215.026 C 190.263 215.508,189.746 215.813,189.567 215.702 C 189.387 215.591,189.287 215.721,189.343 215.991 C 189.399 216.261,189.224 216.436,188.954 216.380 C 188.681 216.323,188.574 216.457,188.713 216.682 C 188.881 216.953,189.193 216.876,189.666 216.448 C 190.054 216.098,190.370 215.914,190.370 216.039 C 190.370 216.782,188.731 217.740,188.178 217.320 C 187.856 217.076,187.719 217.025,187.874 217.207 C 188.200 217.591,186.752 219.259,186.092 219.259 C 185.847 219.259,185.440 219.507,185.189 219.811 C 184.937 220.114,184.607 220.286,184.456 220.193 C 184.305 220.099,183.800 220.429,183.333 220.926 C 182.549 221.761,181.562 221.879,182.057 221.079 C 182.176 220.887,182.454 220.840,182.675 220.977 C 182.932 221.136,182.969 221.051,182.778 220.741 C 182.586 220.431,182.623 220.346,182.880 220.504 C 183.101 220.641,183.380 220.595,183.499 220.402 C 184.044 219.519,182.968 219.769,182.037 220.741 C 181.465 221.337,180.884 221.755,180.746 221.670 C 180.607 221.584,180.494 221.757,180.494 222.055 C 180.494 222.495,180.637 222.475,181.265 221.949 C 181.846 221.462,181.817 221.550,181.150 222.306 C 180.662 222.858,180.144 223.237,180.000 223.148 C 179.856 223.059,179.356 223.392,178.889 223.889 C 178.105 224.723,177.118 224.842,177.612 224.042 C 177.731 223.849,177.988 223.790,178.183 223.910 C 178.378 224.031,178.491 223.908,178.435 223.639 C 178.379 223.369,178.554 223.194,178.824 223.250 C 179.102 223.308,179.204 223.174,179.060 222.940 C 178.896 222.675,178.384 222.937,177.619 223.678 C 176.967 224.310,176.342 224.738,176.232 224.627 C 176.122 224.517,175.833 224.666,175.590 224.958 C 175.249 225.370,175.250 225.552,175.595 225.765 C 175.896 225.951,175.943 225.883,175.741 225.556 C 175.530 225.214,175.585 225.159,175.926 225.370 C 176.274 225.585,176.325 225.523,176.109 225.150 C 175.943 224.864,175.944 224.753,176.110 224.904 C 176.277 225.055,176.637 224.993,176.910 224.766 C 177.184 224.539,177.407 224.501,177.407 224.680 C 177.407 225.010,176.166 225.910,175.650 225.955 C 175.496 225.968,175.095 226.228,174.759 226.532 C 174.351 226.901,174.067 226.954,173.904 226.691 C 173.670 226.312,173.919 226.150,174.565 226.262 C 174.732 226.291,174.769 226.151,174.645 225.951 C 174.522 225.751,174.214 225.667,173.962 225.764 C 173.681 225.872,172.989 224.901,172.185 223.277 C 171.211 221.307,170.805 220.780,170.624 221.252 C 170.463 221.672,170.521 221.803,170.793 221.634 C 171.044 221.479,171.135 221.581,171.025 221.893 C 170.820 222.470,171.707 224.444,172.170 224.444 C 172.335 224.444,172.469 224.653,172.470 224.907 C 172.470 225.470,177.434 234.209,177.852 234.383 C 178.015 234.451,178.148 234.712,178.148 234.964 C 178.148 235.814,180.885 238.628,183.109 240.065 C 187.328 242.792,188.460 242.963,202.297 242.963 L 214.515 242.963 213.329 240.833 C 207.317 230.038,196.859 211.907,196.722 212.044 C 196.627 212.138,196.351 212.051,196.109 211.850 C 195.804 211.597,195.464 211.710,195.007 212.215 M191.805 215.421 C 191.364 215.890,190.850 216.179,190.663 216.063 C 190.209 215.783,191.333 214.568,192.045 214.568 C 192.476 214.568,192.420 214.765,191.805 215.421 M186.307 217.952 C 185.834 218.455,185.324 218.790,185.173 218.696 C 185.022 218.603,184.705 218.760,184.468 219.045 C 183.786 219.867,184.637 220.069,185.370 219.259 C 185.730 218.861,186.173 218.628,186.355 218.740 C 186.536 218.852,186.639 218.723,186.583 218.453 C 186.527 218.184,186.662 217.995,186.883 218.035 C 187.103 218.075,187.284 217.866,187.284 217.572 C 187.284 216.889,187.317 216.876,186.307 217.952 M244.119 274.361 C 243.624 275.286,244.281 276.296,245.376 276.296 C 246.505 276.296,247.295 275.016,246.647 274.236 C 246.033 273.496,244.542 273.570,244.119 274.361 M222.231 285.648 C 222.243 292.899,222.700 294.496,225.319 296.452 C 227.733 298.254,233.703 297.454,235.346 295.108 C 235.912 294.300,235.926 294.318,235.926 295.844 C 235.926 297.265,236.010 297.407,236.852 297.407 L 237.778 297.407 237.778 288.889 L 237.778 280.370 236.886 280.370 L 235.994 280.370 235.863 285.833 C 235.676 293.587,234.403 295.661,229.832 295.661 C 225.340 295.661,224.444 294.080,224.444 286.148 L 224.444 280.370 223.333 280.370 L 222.222 280.370 222.231 285.648 M244.444 288.889 L 244.444 297.407 245.370 297.407 L 246.296 297.407 246.296 288.889 L 246.296 280.370 245.370 280.370 L 244.444 280.370 244.444 288.889 " stroke="none" fill="#c921bf" fill-rule="evenodd"></path><path id="path3" d="M172.315 127.314 C 176.134 127.375,182.384 127.375,186.204 127.314 C 190.023 127.254,186.898 127.205,179.259 127.205 C 171.620 127.205,168.495 127.254,172.315 127.314 M159.792 130.093 L 158.704 131.296 159.907 130.208 C 161.029 129.194,161.281 128.889,160.995 128.889 C 160.931 128.889,160.390 129.431,159.792 130.093 M182.395 186.944 C 182.718 187.606,183.061 188.148,183.158 188.148 C 183.526 188.148,183.289 187.558,182.562 186.667 L 181.807 185.741 182.395 186.944 M182.046 189.692 C 181.236 190.292,180.468 190.954,180.338 191.163 C 180.208 191.373,179.954 191.547,179.773 191.550 C 179.592 191.553,179.490 191.718,179.546 191.916 C 179.602 192.115,179.478 192.172,179.269 192.043 C 178.857 191.788,176.667 192.941,176.667 193.413 C 176.667 193.573,176.502 193.704,176.300 193.704 C 175.875 193.704,168.075 198.852,167.736 199.356 C 167.612 199.541,167.362 199.695,167.181 199.698 C 167.000 199.701,166.898 199.866,166.954 200.065 C 167.010 200.263,166.889 200.323,166.686 200.197 C 166.483 200.072,165.924 200.227,165.444 200.541 C 164.964 200.856,164.432 200.988,164.263 200.835 C 164.094 200.681,164.080 200.889,164.232 201.296 C 164.384 201.704,164.570 202.501,164.645 203.067 C 165.338 208.267,172.703 226.247,173.945 225.770 C 174.207 225.670,174.522 225.751,174.645 225.951 C 174.769 226.151,174.732 226.269,174.565 226.213 C 174.397 226.157,174.218 226.236,174.167 226.389 C 173.935 227.083,174.132 227.099,174.854 226.446 C 175.282 226.058,175.700 225.783,175.781 225.836 C 176.035 225.999,177.407 225.024,177.407 224.680 C 177.407 224.501,177.184 224.539,176.910 224.766 C 176.637 224.993,176.277 225.055,176.110 224.904 C 175.944 224.753,175.943 224.864,176.109 225.150 C 176.325 225.523,176.274 225.585,175.926 225.370 C 175.585 225.159,175.530 225.214,175.741 225.556 C 175.943 225.883,175.896 225.951,175.595 225.765 C 175.250 225.552,175.249 225.370,175.590 224.958 C 175.833 224.666,176.122 224.517,176.232 224.627 C 176.342 224.738,176.967 224.310,177.619 223.678 C 178.384 222.937,178.896 222.675,179.060 222.940 C 179.204 223.174,179.102 223.308,178.824 223.250 C 178.554 223.194,178.379 223.369,178.435 223.639 C 178.491 223.908,178.378 224.031,178.183 223.910 C 177.988 223.790,177.731 223.849,177.612 224.042 C 177.118 224.842,178.105 224.723,178.889 223.889 C 179.356 223.392,179.856 223.059,180.000 223.148 C 180.144 223.237,180.662 222.862,181.150 222.315 C 181.638 221.767,181.760 221.530,181.422 221.788 C 180.946 222.152,180.744 222.157,180.531 221.813 C 180.372 221.554,180.412 221.463,180.627 221.596 C 180.831 221.722,181.465 221.337,182.037 220.741 C 182.968 219.769,184.044 219.519,183.499 220.402 C 183.380 220.595,183.101 220.641,182.880 220.504 C 182.623 220.346,182.586 220.431,182.778 220.741 C 182.969 221.051,182.932 221.136,182.675 220.977 C 182.454 220.840,182.176 220.887,182.057 221.079 C 181.562 221.879,182.549 221.761,183.333 220.926 C 183.800 220.429,184.305 220.099,184.456 220.193 C 184.607 220.286,184.937 220.114,185.189 219.811 C 185.440 219.507,185.847 219.259,186.092 219.259 C 186.752 219.259,188.200 217.591,187.874 217.207 C 187.719 217.025,187.856 217.076,188.178 217.320 C 188.731 217.740,190.370 216.782,190.370 216.039 C 190.370 215.914,190.054 216.098,189.666 216.448 C 189.193 216.876,188.881 216.953,188.713 216.682 C 188.574 216.457,188.681 216.323,188.954 216.380 C 189.224 216.436,189.399 216.261,189.343 215.991 C 189.287 215.721,189.387 215.591,189.567 215.702 C 189.746 215.813,190.263 215.508,190.717 215.026 C 191.533 214.157,192.026 214.042,192.814 214.535 C 193.038 214.675,193.573 214.462,194.002 214.061 C 194.432 213.661,194.932 213.333,195.112 213.333 C 196.794 213.333,196.837 211.502,195.215 208.889 C 195.026 208.583,194.171 207.083,193.315 205.556 C 191.858 202.955,191.459 202.255,189.675 199.167 C 188.107 196.453,186.416 193.416,185.550 191.757 C 183.844 188.492,183.746 188.434,182.046 189.692 M163.439 193.148 C 163.442 194.167,163.514 194.539,163.599 193.976 C 163.684 193.413,163.682 192.580,163.594 192.125 C 163.506 191.669,163.436 192.130,163.439 193.148 M196.117 211.861 C 196.246 212.070,196.131 212.195,195.861 212.139 C 195.589 212.082,195.425 212.285,195.494 212.593 C 195.562 212.898,195.490 213.021,195.334 212.865 C 195.179 212.710,194.593 213.021,194.033 213.557 C 193.474 214.094,193.050 214.304,193.092 214.026 C 193.212 213.237,193.724 212.561,194.050 212.763 C 194.213 212.863,194.644 212.616,195.008 212.213 C 195.775 211.366,195.805 211.356,196.117 211.861 M190.903 215.210 C 190.016 216.191,190.889 216.395,191.805 215.421 C 192.420 214.765,192.476 214.568,192.045 214.568 C 191.737 214.568,191.223 214.857,190.903 215.210 M187.284 217.572 C 187.284 217.866,187.103 218.075,186.883 218.035 C 186.662 217.995,186.527 218.184,186.583 218.453 C 186.639 218.723,186.536 218.852,186.355 218.740 C 186.173 218.628,185.730 218.861,185.370 219.259 C 184.637 220.069,183.786 219.867,184.468 219.045 C 184.705 218.760,185.022 218.603,185.173 218.696 C 185.324 218.790,185.834 218.455,186.307 217.952 C 187.317 216.876,187.284 216.889,187.284 217.572 M198.222 309.704 C 197.978 309.948,197.778 310.370,197.778 310.641 C 197.778 310.912,197.528 311.230,197.222 311.348 C 196.619 311.579,196.444 312.963,197.019 312.963 C 197.212 312.963,197.420 313.921,197.482 315.093 C 197.657 318.450,199.259 318.557,199.259 315.211 C 199.259 312.969,199.262 312.963,200.352 312.963 C 201.422 312.963,201.447 313.006,201.556 315.093 C 201.655 317.006,201.751 317.226,202.500 317.264 C 203.297 317.304,203.333 317.179,203.333 314.412 L 203.333 311.518 201.204 311.402 C 199.185 311.291,199.127 311.261,200.093 310.837 C 201.548 310.197,201.427 309.259,199.889 309.259 C 199.217 309.259,198.467 309.459,198.222 309.704 M201.481 310.185 C 201.481 310.926,201.667 311.111,202.407 311.111 C 203.148 311.111,203.333 310.926,203.333 310.185 C 203.333 309.444,203.148 309.259,202.407 309.259 C 201.667 309.259,201.481 309.444,201.481 310.185 M213.816 311.358 C 213.113 312.280,212.929 312.766,213.242 312.871 C 213.511 312.960,213.706 313.669,213.709 314.568 C 213.717 316.585,214.081 317.089,215.584 317.162 C 217.060 317.234,217.665 316.021,216.329 315.671 C 215.372 315.421,215.174 312.963,216.111 312.963 C 216.420 312.963,216.667 312.634,216.667 312.222 C 216.667 311.811,216.420 311.481,216.111 311.481 C 215.802 311.481,215.556 311.152,215.556 310.741 C 215.556 309.634,214.974 309.840,213.816 311.358 M183.333 313.309 C 183.333 316.763,184.345 317.786,187.225 317.246 L 188.519 317.003 188.519 314.242 C 188.519 311.544,188.497 311.481,187.593 311.481 C 186.721 311.481,186.667 311.597,186.667 313.457 C 186.667 315.636,186.430 316.128,185.682 315.507 C 185.391 315.265,185.185 314.347,185.185 313.288 C 185.185 311.608,185.120 311.481,184.259 311.481 C 183.397 311.481,183.333 311.607,183.333 313.309 M189.259 311.834 C 189.259 312.029,189.455 312.616,189.694 313.141 C 190.046 313.915,190.011 314.338,189.508 315.393 C 188.684 317.120,188.724 317.407,189.786 317.407 C 190.492 317.407,190.780 317.116,191.133 316.043 L 191.584 314.679 192.128 316.043 C 192.543 317.084,192.882 317.407,193.558 317.407 C 194.593 317.407,194.687 316.807,193.842 315.600 C 193.340 314.885,193.309 314.504,193.656 313.345 C 194.211 311.494,194.208 311.481,193.202 311.481 C 192.538 311.481,192.243 311.770,191.969 312.685 L 191.610 313.889 191.331 312.685 C 191.066 311.540,189.259 310.798,189.259 311.834 M204.522 314.373 C 204.622 317.008,204.692 317.231,205.463 317.341 C 206.234 317.450,206.296 317.317,206.296 315.573 C 206.296 313.922,206.411 313.636,207.222 313.266 C 208.916 312.494,208.405 311.555,206.281 311.538 L 204.414 311.524 204.522 314.373 M208.906 312.017 C 208.200 312.867,208.600 314.203,209.722 314.739 C 211.117 315.405,211.038 316.050,209.599 315.734 C 208.557 315.505,208.468 315.559,208.581 316.353 C 208.671 316.993,208.978 317.254,209.746 317.342 C 212.422 317.648,213.818 314.473,211.389 313.605 L 210.185 313.175 211.292 312.974 C 211.943 312.855,212.449 312.507,212.523 312.127 C 212.685 311.285,209.592 311.190,208.906 312.017 " stroke="none" fill="#92227d" fill-rule="evenodd"></path><path id="path4" d="M227.166 104.074 C 236.056 122.674,237.014 135.785,230.584 150.839 C 229.649 153.028,223.827 164.110,217.647 175.465 C 211.467 186.821,206.208 196.494,205.961 196.961 L 205.512 197.811 219.700 197.702 L 233.889 197.593 235.878 196.491 C 238.555 195.008,238.449 195.173,247.494 178.515 C 259.194 156.968,259.040 159.247,249.880 143.064 C 247.139 138.222,240.523 126.509,235.178 117.037 C 229.833 107.565,225.306 99.648,225.118 99.444 C 224.930 99.241,225.852 101.324,227.166 104.074 M163.600 204.722 C 162.632 207.013,162.639 207.138,163.877 209.444 C 166.405 214.155,171.184 222.593,171.325 222.593 C 171.406 222.593,171.044 221.634,170.520 220.463 C 167.849 214.484,165.900 209.170,164.816 204.907 C 164.330 202.995,164.330 202.995,163.600 204.722 " stroke="none" fill="#b830f8" fill-rule="evenodd"></path></g></svg>