<svg id="svg" version="1.1" xmlns="http://www.w3.org/2000/svg" xmlns:xlink="http://www.w3.org/1999/xlink" width="400" height="400" viewBox="0, 0, 400,400"><g id="svgg"><path id="path0" d="M175.185 21.252 C 175.185 21.548,175.310 21.846,175.463 21.914 C 175.616 21.981,176.074 22.704,176.481 23.519 C 176.888 24.333,177.429 25.220,177.684 25.489 C 177.939 25.759,178.148 26.217,178.148 26.508 C 178.148 26.799,178.297 27.037,178.478 27.037 C 178.792 27.037,179.441 28.788,179.328 29.329 C 179.298 29.470,179.604 29.689,180.008 29.817 C 180.411 29.945,180.741 30.237,180.741 30.466 C 180.741 31.088,183.046 35.556,183.367 35.556 C 183.520 35.556,183.755 36.056,183.889 36.667 C 184.023 37.278,184.267 37.778,184.431 37.778 C 184.594 37.778,184.826 38.069,184.946 38.426 C 185.158 39.056,185.922 40.367,186.296 40.741 C 186.699 41.143,187.957 43.867,187.870 44.147 C 187.819 44.310,187.933 44.444,188.122 44.444 C 188.312 44.444,188.841 45.194,189.299 46.111 C 189.757 47.028,190.268 47.778,190.436 47.778 C 190.604 47.778,190.741 48.025,190.741 48.328 C 190.741 48.630,191.241 49.690,191.852 50.684 C 192.463 51.677,192.963 52.679,192.963 52.911 C 192.963 53.143,193.110 53.333,193.290 53.333 C 193.580 53.333,193.890 54.043,193.991 54.935 C 194.010 55.104,194.343 55.520,194.731 55.861 C 195.119 56.202,195.550 56.940,195.689 57.500 C 195.827 58.060,196.104 58.519,196.303 58.519 C 196.503 58.519,196.667 58.769,196.667 59.074 C 196.667 59.380,196.843 59.630,197.059 59.630 C 197.275 59.630,197.364 59.771,197.257 59.944 C 197.150 60.117,197.383 60.603,197.776 61.023 C 198.168 61.444,198.597 62.220,198.729 62.746 C 198.861 63.273,199.118 63.704,199.299 63.704 C 199.481 63.704,199.630 63.874,199.630 64.081 C 199.630 64.289,200.040 65.109,200.541 65.903 C 201.042 66.696,201.560 67.775,201.691 68.300 C 201.823 68.825,202.080 69.162,202.262 69.050 C 202.444 68.937,202.593 69.105,202.593 69.423 C 202.593 69.740,202.746 70.000,202.934 70.000 C 203.121 70.000,203.384 70.500,203.519 71.111 C 203.653 71.722,203.897 72.222,204.060 72.222 C 204.224 72.222,204.456 72.514,204.576 72.870 C 204.822 73.603,205.615 74.904,205.989 75.189 C 206.126 75.293,206.356 75.848,206.500 76.423 C 206.644 76.997,206.991 77.555,207.270 77.662 C 207.549 77.769,207.778 78.089,207.778 78.373 C 207.778 78.657,207.944 78.889,208.148 78.889 C 208.352 78.889,208.519 79.106,208.519 79.371 C 208.519 80.238,209.434 81.846,209.929 81.849 C 210.196 81.851,210.310 82.020,210.184 82.225 C 210.057 82.430,210.223 82.701,210.553 82.828 C 210.884 82.955,211.067 83.285,210.961 83.562 C 210.854 83.839,210.968 84.026,211.213 83.977 C 211.494 83.921,211.616 84.264,211.544 84.907 C 211.480 85.468,211.607 85.926,211.825 85.926 C 212.044 85.926,212.222 86.186,212.222 86.503 C 212.222 86.821,212.400 86.971,212.618 86.836 C 212.835 86.702,213.103 86.937,213.213 87.358 C 213.323 87.779,213.744 88.229,214.149 88.357 C 214.756 88.550,214.844 88.804,214.653 89.822 C 214.399 91.176,214.990 91.939,215.369 90.746 C 215.499 90.336,215.761 90.000,215.950 90.000 C 216.140 90.000,216.230 89.332,216.150 88.516 C 216.071 87.699,216.154 86.940,216.336 86.827 C 216.518 86.715,216.667 86.299,216.667 85.904 C 216.667 85.509,216.831 85.185,217.033 85.185 C 217.234 85.185,217.396 84.810,217.392 84.352 C 217.379 82.978,217.839 81.111,218.190 81.111 C 218.371 81.111,218.519 80.518,218.519 79.793 C 218.519 79.068,218.651 78.556,218.812 78.656 C 218.973 78.756,219.130 78.511,219.160 78.113 C 219.190 77.714,219.461 76.894,219.763 76.289 C 220.064 75.685,220.427 74.106,220.569 72.781 C 220.711 71.455,220.974 70.370,221.154 70.370 C 221.334 70.370,221.481 69.527,221.481 68.497 C 221.481 67.466,221.620 66.709,221.790 66.814 C 221.960 66.919,222.121 66.803,222.148 66.558 C 222.175 66.312,222.300 65.112,222.426 63.891 C 222.552 62.670,222.788 61.587,222.951 61.484 C 223.113 61.381,223.340 60.230,223.455 58.928 C 223.569 57.625,223.839 56.383,224.054 56.168 C 224.269 55.953,224.444 55.238,224.444 54.577 C 224.444 53.917,224.618 53.270,224.830 53.139 C 225.042 53.007,225.201 52.206,225.183 51.357 C 225.131 48.971,225.632 43.704,225.910 43.704 C 226.047 43.704,226.206 42.329,226.263 40.648 C 226.320 38.968,226.421 37.176,226.486 36.667 C 226.551 36.157,226.619 33.523,226.636 30.811 C 226.660 26.982,226.770 25.941,227.130 26.144 C 227.487 26.345,227.493 26.297,227.157 25.934 C 226.918 25.675,226.288 25.463,225.758 25.463 C 224.995 25.463,224.839 25.323,225.008 24.789 C 225.180 24.248,224.962 24.066,223.907 23.868 C 223.184 23.732,222.593 23.491,222.593 23.332 C 222.593 23.091,221.204 22.547,220.309 22.438 C 220.173 22.421,219.937 22.282,219.784 22.130 C 219.310 21.656,218.450 21.810,218.753 22.315 C 218.944 22.633,218.837 22.620,218.409 22.273 C 218.066 21.995,217.877 21.620,217.989 21.440 C 218.101 21.259,217.932 21.111,217.614 21.111 C 217.297 21.111,217.034 21.319,217.031 21.574 C 217.028 21.881,216.908 21.850,216.675 21.481 C 216.152 20.654,175.185 20.428,175.185 21.252 M231.481 30.738 C 231.481 31.147,231.722 31.481,232.015 31.481 C 232.875 31.481,232.973 30.925,232.198 30.441 C 231.579 30.055,231.481 30.095,231.481 30.738 M234.285 34.403 C 234.088 34.722,234.574 35.718,239.368 44.815 C 242.158 50.109,245.085 55.986,245.576 57.276 C 245.780 57.812,246.034 58.163,246.142 58.056 C 246.249 57.948,245.558 56.226,244.606 54.229 C 243.132 51.137,242.941 50.490,243.325 49.876 C 243.726 49.234,243.689 49.177,242.999 49.357 C 242.228 49.559,241.869 49.068,242.608 48.822 C 243.065 48.670,241.981 46.296,241.454 46.296 C 241.266 46.296,241.111 46.002,241.111 45.642 C 241.111 45.281,240.720 44.406,240.242 43.697 C 239.763 42.988,238.822 41.407,238.149 40.185 C 237.477 38.963,236.826 37.880,236.704 37.778 C 236.581 37.676,236.094 36.801,235.622 35.833 C 234.719 33.985,234.613 33.872,234.285 34.403 M243.333 50.741 C 243.333 50.944,243.500 51.111,243.704 51.111 C 243.907 51.111,244.074 51.290,244.074 51.508 C 244.074 51.726,244.324 52.155,244.630 52.460 C 245.338 53.169,245.335 52.845,244.620 51.463 C 244.072 50.403,243.333 49.989,243.333 50.741 M245.926 54.729 C 245.926 54.885,246.335 55.615,246.835 56.351 C 247.335 57.086,247.640 57.792,247.514 57.918 C 247.387 58.045,247.492 58.148,247.747 58.148 C 248.002 58.148,248.154 58.023,248.086 57.870 C 246.681 54.706,245.926 53.608,245.926 54.729 M246.545 59.172 C 246.661 59.634,246.903 60.102,247.082 60.213 C 247.589 60.526,247.465 59.848,246.870 59.052 C 246.352 58.359,246.341 58.363,246.545 59.172 M248.889 59.824 C 248.889 60.018,249.639 61.497,250.278 62.562 C 250.659 63.198,250.684 62.106,250.303 61.439 C 249.726 60.428,248.889 59.473,248.889 59.824 M247.609 61.574 C 247.748 62.032,248.013 62.570,248.200 62.769 C 248.386 62.968,248.351 62.593,248.122 61.936 C 247.653 60.591,247.220 60.285,247.609 61.574 M251.111 64.286 C 251.111 64.402,251.369 64.755,251.684 65.071 C 252.398 65.784,252.870 65.410,252.230 64.639 C 251.767 64.081,251.111 63.874,251.111 64.286 M249.471 65.926 C 249.604 66.435,249.861 67.010,250.042 67.204 C 250.570 67.769,250.408 66.958,249.786 65.926 L 249.228 65.000 249.471 65.926 M250.530 68.704 C 250.675 69.315,250.945 69.970,251.131 70.160 C 251.326 70.359,251.319 69.986,251.116 69.277 C 250.666 67.706,250.181 67.232,250.530 68.704 M253.817 68.641 C 253.958 69.015,254.074 69.506,254.074 69.734 C 254.074 70.035,254.189 70.034,254.495 69.728 C 254.809 69.414,254.743 69.136,254.238 68.635 C 253.583 67.986,253.569 67.986,253.817 68.641 M255.926 72.593 C 255.926 72.796,256.075 72.963,256.256 72.963 C 256.438 72.963,256.691 73.380,256.819 73.889 C 257.042 74.780,257.778 75.206,257.778 74.444 C 257.778 74.241,257.611 74.074,257.407 74.074 C 257.204 74.074,257.063 73.949,257.096 73.796 C 257.128 73.644,257.027 73.227,256.871 72.870 C 256.566 72.173,255.926 71.985,255.926 72.593 M252.452 73.889 C 252.584 74.500,252.839 75.250,253.018 75.556 C 253.226 75.911,253.257 75.711,253.103 75.000 C 252.971 74.389,252.717 73.639,252.538 73.333 C 252.329 72.978,252.299 73.178,252.452 73.889 M257.778 75.481 C 257.778 75.644,257.978 75.978,258.222 76.222 C 258.467 76.467,258.544 76.667,258.394 76.667 C 258.244 76.667,258.544 77.289,259.061 78.049 C 259.577 78.809,260.000 79.643,260.000 79.901 C 260.000 80.159,260.167 80.370,260.370 80.370 C 260.859 80.370,260.846 79.738,260.351 79.432 C 260.136 79.300,260.024 79.002,260.101 78.770 C 260.178 78.539,259.931 78.016,259.551 77.608 C 259.171 77.200,258.765 76.488,258.649 76.026 C 258.453 75.243,257.778 74.821,257.778 75.481 M254.487 80.741 C 254.470 81.250,254.617 81.917,254.815 82.222 C 255.272 82.930,255.272 82.168,254.815 80.741 L 254.518 79.815 254.487 80.741 M260.814 81.019 C 261.925 83.299,262.593 84.028,262.593 82.963 C 262.593 82.759,262.429 82.593,262.229 82.593 C 262.029 82.593,261.761 82.176,261.634 81.667 C 261.506 81.157,261.239 80.741,261.040 80.741 C 260.841 80.741,260.740 80.866,260.814 81.019 M255.439 84.815 C 255.563 85.731,255.801 86.815,255.967 87.222 C 256.147 87.665,256.178 87.291,256.043 86.296 C 255.918 85.380,255.681 84.296,255.515 83.889 C 255.334 83.447,255.304 83.820,255.439 84.815 M262.788 84.491 C 262.939 84.974,263.165 85.454,263.291 85.556 C 263.416 85.657,263.836 86.366,264.225 87.130 C 264.614 87.894,265.072 88.519,265.244 88.519 C 265.630 88.519,265.657 87.885,265.278 87.716 C 265.125 87.648,264.583 86.787,264.074 85.803 C 263.051 83.826,262.360 83.121,262.788 84.491 M256.377 89.815 C 256.373 90.426,256.504 91.343,256.667 91.852 L 256.963 92.778 256.956 91.852 C 256.953 91.343,256.822 90.426,256.667 89.815 L 256.384 88.704 256.377 89.815 M265.381 89.241 C 265.249 89.455,265.318 89.630,265.534 89.630 C 265.749 89.630,265.926 89.880,265.926 90.185 C 265.926 90.491,266.051 90.742,266.204 90.744 C 266.356 90.746,266.811 91.496,267.213 92.411 C 267.615 93.326,268.055 94.074,268.191 94.074 C 268.327 94.074,268.548 94.511,268.682 95.045 C 268.938 96.065,269.905 97.256,270.220 96.940 C 270.322 96.839,270.062 96.194,269.642 95.507 C 269.222 94.821,268.778 93.968,268.655 93.611 C 268.533 93.255,268.298 92.963,268.134 92.963 C 267.971 92.963,267.727 92.463,267.593 91.852 C 267.458 91.241,267.195 90.741,267.008 90.741 C 266.820 90.741,266.667 90.511,266.667 90.231 C 266.667 89.502,265.687 88.748,265.381 89.241 M216.442 93.919 C 216.566 94.241,216.667 94.569,216.667 94.648 C 216.667 94.727,216.921 94.694,217.232 94.575 C 217.667 94.408,217.699 94.241,217.372 93.846 C 216.792 93.148,216.165 93.197,216.442 93.919 M257.152 97.222 C 257.154 98.444,257.223 98.900,257.305 98.234 C 257.388 97.568,257.386 96.568,257.302 96.012 C 257.217 95.455,257.150 96.000,257.152 97.222 M218.523 97.786 C 218.982 98.645,219.259 98.726,219.259 98.003 C 219.259 97.719,219.005 97.389,218.695 97.270 C 218.235 97.094,218.203 97.189,218.523 97.786 M270.741 98.889 C 270.741 99.093,270.881 99.259,271.052 99.259 C 271.224 99.259,271.559 99.884,271.798 100.648 C 272.296 102.243,273.213 103.577,273.567 103.223 C 273.700 103.090,273.620 102.753,273.389 102.475 C 273.158 102.197,273.093 101.832,273.244 101.666 C 273.395 101.499,273.324 101.474,273.086 101.611 C 272.809 101.769,272.560 101.422,272.395 100.651 C 272.041 98.996,270.741 97.611,270.741 98.889 M257.148 104.444 C 257.148 105.565,257.217 106.023,257.302 105.463 C 257.387 104.903,257.387 103.986,257.302 103.426 C 257.217 102.866,257.148 103.324,257.148 104.444 M273.704 104.094 C 273.704 104.500,275.145 107.368,275.556 107.778 C 275.657 107.880,276.312 109.046,277.010 110.370 C 277.708 111.694,278.374 112.861,278.491 112.963 C 278.608 113.065,279.034 113.815,279.437 114.630 C 279.840 115.444,280.799 117.156,281.567 118.432 C 282.335 119.709,282.963 120.918,282.963 121.118 C 282.963 121.318,283.088 121.485,283.241 121.489 C 283.394 121.493,283.935 122.407,284.444 123.519 C 284.954 124.630,285.495 125.544,285.648 125.548 C 285.801 125.552,285.926 125.792,285.926 126.080 C 285.926 126.369,286.051 126.660,286.204 126.728 C 286.356 126.796,286.796 127.435,287.182 128.148 C 288.818 131.178,291.535 136.489,291.494 136.577 C 291.443 136.686,291.805 139.011,292.076 140.321 C 292.176 140.804,292.355 141.102,292.473 140.984 C 292.795 140.662,291.812 134.815,291.436 134.815 C 291.257 134.815,291.111 134.565,291.111 134.259 C 291.111 133.954,290.944 133.704,290.741 133.704 C 290.537 133.704,290.370 133.299,290.370 132.804 C 290.370 132.310,290.128 131.663,289.832 131.367 C 289.537 131.071,289.394 130.730,289.515 130.608 C 289.636 130.487,289.463 130.283,289.129 130.155 C 288.796 130.027,288.620 129.764,288.740 129.571 C 288.859 129.378,288.619 128.927,288.207 128.570 C 287.794 128.212,287.344 127.471,287.207 126.923 C 287.069 126.374,286.826 125.926,286.667 125.926 C 286.507 125.926,286.272 125.509,286.144 125.000 C 286.016 124.491,285.748 124.074,285.548 124.074 C 285.349 124.074,285.185 123.824,285.185 123.519 C 285.185 123.213,285.026 122.963,284.832 122.963 C 284.637 122.963,284.369 122.380,284.235 121.667 C 284.101 120.954,283.844 120.370,283.662 120.370 C 283.481 120.370,283.333 120.120,283.333 119.815 C 283.333 119.509,283.172 119.259,282.975 119.259 C 282.777 119.259,282.722 118.982,282.852 118.643 C 283.011 118.229,282.947 118.114,282.656 118.294 C 282.395 118.455,282.222 118.331,282.222 117.985 C 282.222 117.667,282.056 117.407,281.852 117.407 C 281.648 117.407,281.481 117.014,281.481 116.533 C 281.481 116.041,281.090 115.365,280.584 114.986 C 280.091 114.615,279.583 113.758,279.456 113.082 C 279.330 112.405,279.083 111.852,278.908 111.852 C 278.734 111.852,278.416 111.350,278.202 110.736 C 277.988 110.122,277.565 109.525,277.262 109.409 C 276.960 109.292,276.608 108.723,276.480 108.143 C 276.353 107.563,276.009 106.890,275.717 106.647 C 275.424 106.404,275.185 105.976,275.185 105.695 C 275.185 105.415,275.019 105.185,274.815 105.185 C 274.611 105.185,274.444 104.945,274.444 104.651 C 274.444 104.358,274.278 104.015,274.074 103.889 C 273.870 103.763,273.704 103.855,273.704 104.094 M256.465 110.539 C 256.323 111.483,256.290 112.340,256.392 112.442 C 256.494 112.543,256.693 111.854,256.835 110.909 C 256.977 109.964,257.009 109.108,256.907 109.006 C 256.806 108.904,256.606 109.594,256.465 110.539 M255.417 116.343 C 255.108 117.886,255.407 118.186,255.741 116.667 C 255.881 116.026,255.919 115.425,255.825 115.331 C 255.730 115.237,255.547 115.692,255.417 116.343 M254.481 119.852 C 254.268 120.623,254.161 121.321,254.242 121.403 C 254.324 121.484,254.565 120.920,254.778 120.148 C 254.991 119.377,255.098 118.679,255.017 118.597 C 254.935 118.516,254.695 119.080,254.481 119.852 M253.519 122.963 C 253.379 123.401,253.349 123.843,253.451 123.945 C 253.553 124.047,253.750 123.771,253.889 123.333 C 254.028 122.895,254.058 122.453,253.957 122.352 C 253.855 122.250,253.658 122.525,253.519 122.963 M251.462 128.755 C 251.258 129.293,251.159 129.801,251.243 129.885 C 251.327 129.969,251.573 129.529,251.790 128.908 C 252.271 127.526,251.981 127.391,251.462 128.755 M248.579 135.386 C 247.958 136.748,248.077 137.039,248.748 135.801 C 249.061 135.222,249.248 134.680,249.163 134.595 C 249.079 134.511,248.815 134.867,248.579 135.386 M243.426 144.258 C 243.171 144.547,242.963 144.943,242.963 145.139 C 242.963 145.334,242.818 145.549,242.642 145.617 C 242.144 145.808,241.741 147.407,242.190 147.407 C 242.404 147.407,242.683 146.991,242.811 146.481 C 242.939 145.972,243.192 145.556,243.373 145.556 C 243.555 145.556,243.704 145.306,243.704 145.000 C 243.704 144.694,243.870 144.444,244.074 144.444 C 244.278 144.444,244.444 144.278,244.444 144.074 C 244.444 143.553,243.972 143.638,243.426 144.258 M292.002 145.748 C 291.873 146.261,291.841 147.061,291.930 147.526 C 292.019 147.992,291.867 148.582,291.593 148.838 C 291.319 149.094,291.201 149.475,291.330 149.684 C 291.792 150.432,292.264 149.355,292.465 147.091 C 292.672 144.773,292.426 144.060,292.002 145.748 M240.374 149.746 C 238.655 152.450,237.959 154.074,238.519 154.074 C 238.722 154.074,238.889 153.824,238.889 153.519 C 238.889 153.213,239.044 152.963,239.234 152.963 C 239.424 152.963,239.696 152.588,239.838 152.130 C 239.981 151.671,240.412 150.850,240.796 150.304 C 241.180 149.758,241.359 149.227,241.192 149.124 C 241.025 149.021,240.657 149.301,240.374 149.746 M290.741 150.901 C 290.741 151.388,288.583 155.869,288.143 156.296 C 288.038 156.398,287.431 157.481,286.794 158.704 C 286.158 159.926,285.160 161.843,284.578 162.963 C 283.995 164.083,283.423 165.083,283.306 165.185 C 283.059 165.401,282.603 166.569,282.634 166.907 C 282.646 167.035,282.501 167.241,282.312 167.366 C 282.123 167.491,281.234 169.009,280.336 170.741 C 279.438 172.472,278.611 173.972,278.499 174.074 C 277.692 174.802,276.518 177.778,277.037 177.778 C 277.241 177.778,277.407 177.528,277.407 177.222 C 277.407 176.917,277.556 176.667,277.738 176.667 C 277.919 176.667,278.174 176.243,278.304 175.726 C 278.434 175.208,278.694 174.879,278.881 174.995 C 279.068 175.111,279.332 174.618,279.467 173.899 C 279.602 173.181,279.860 172.593,280.041 172.593 C 280.222 172.593,280.370 172.337,280.370 172.025 C 280.370 171.713,280.585 171.376,280.848 171.275 C 281.110 171.174,281.353 170.724,281.387 170.274 C 281.421 169.824,281.623 169.397,281.835 169.326 C 282.048 169.256,282.222 168.970,282.222 168.692 C 282.222 168.414,282.621 167.756,283.109 167.229 C 283.597 166.703,284.105 165.694,284.237 164.988 C 284.370 164.282,284.637 163.704,284.832 163.704 C 285.026 163.704,285.185 163.454,285.185 163.148 C 285.185 162.843,285.352 162.593,285.556 162.593 C 285.759 162.593,285.926 162.419,285.926 162.207 C 285.926 161.995,286.259 161.463,286.667 161.026 C 287.074 160.588,287.407 159.762,287.407 159.189 C 287.407 158.617,287.574 158.148,287.778 158.148 C 287.981 158.148,288.148 157.898,288.148 157.593 C 288.148 157.287,288.302 157.037,288.489 157.037 C 288.677 157.037,288.937 156.551,289.067 155.957 C 289.198 155.363,289.555 154.781,289.861 154.663 C 290.167 154.546,290.322 154.295,290.205 154.107 C 290.089 153.918,290.245 153.512,290.552 153.204 C 290.860 152.897,291.111 152.300,291.111 151.878 C 291.111 151.456,291.278 151.111,291.481 151.111 C 291.685 151.111,291.852 150.944,291.852 150.741 C 291.852 150.537,291.602 150.370,291.296 150.370 C 290.991 150.370,290.741 150.609,290.741 150.901 M236.296 157.196 C 236.296 157.487,236.068 157.953,235.790 158.232 C 234.968 159.053,234.542 160.688,235.317 160.044 C 235.652 159.766,235.926 159.323,235.926 159.060 C 235.926 158.796,236.071 158.525,236.247 158.457 C 236.751 158.263,237.147 156.667,236.692 156.667 C 236.474 156.667,236.296 156.905,236.296 157.196 M232.571 164.256 C 232.074 165.374,231.542 166.290,231.389 166.293 C 231.236 166.295,231.111 166.463,231.111 166.667 C 231.111 167.500,231.776 166.946,232.440 165.560 C 232.830 164.747,233.291 164.081,233.466 164.078 C 233.640 164.076,233.687 163.824,233.570 163.519 C 233.453 163.213,233.518 162.963,233.715 162.963 C 233.913 162.963,234.074 162.796,234.074 162.593 C 234.074 161.652,233.394 162.404,232.571 164.256 M230.046 168.709 C 229.613 169.442,229.259 170.188,229.259 170.365 C 229.259 170.543,229.045 170.908,228.782 171.177 C 228.314 171.658,227.037 174.157,227.037 174.593 C 227.037 175.351,227.732 174.539,228.511 172.870 C 229.010 171.801,229.510 170.843,229.620 170.741 C 230.107 170.294,231.243 167.787,231.048 167.591 C 230.930 167.473,230.479 167.976,230.046 168.709 M225.560 177.154 C 223.840 179.857,223.144 181.481,223.704 181.481 C 223.907 181.481,224.074 181.231,224.074 180.926 C 224.074 180.620,224.227 180.370,224.415 180.370 C 224.603 180.370,224.866 179.870,225.000 179.259 C 225.134 178.648,225.397 178.148,225.585 178.148 C 225.773 178.148,225.926 177.912,225.926 177.623 C 225.926 177.335,226.126 177.032,226.371 176.951 C 226.647 176.858,226.675 176.716,226.445 176.573 C 226.241 176.447,225.843 176.708,225.560 177.154 M275.349 179.845 C 274.750 180.849,273.676 182.837,272.963 184.261 C 272.250 185.686,271.542 186.907,271.389 186.975 C 271.236 187.043,271.111 187.255,271.111 187.446 C 271.111 187.636,270.719 188.414,270.239 189.174 C 269.760 189.934,269.237 190.972,269.078 191.481 C 268.919 191.991,268.687 192.491,268.561 192.593 C 268.315 192.792,267.984 193.361,266.268 196.533 C 263.835 201.031,262.449 202.517,258.946 204.384 C 256.446 205.717,255.946 206.411,257.934 205.789 C 258.632 205.571,259.122 205.262,259.024 205.104 C 258.925 204.945,259.105 204.815,259.423 204.815 C 259.740 204.815,260.000 204.648,260.000 204.444 C 260.000 204.241,260.296 204.074,260.658 204.074 C 261.021 204.074,261.608 203.734,261.965 203.318 C 262.321 202.901,262.800 202.677,263.030 202.819 C 263.272 202.969,263.346 202.912,263.206 202.686 C 263.073 202.471,263.755 201.502,264.723 200.532 C 265.690 199.563,266.231 198.909,265.926 199.078 C 265.525 199.301,265.551 199.180,266.019 198.646 C 266.375 198.238,266.667 197.543,266.667 197.100 C 266.667 196.658,266.815 196.296,266.997 196.296 C 267.179 196.296,267.433 195.873,267.563 195.355 C 267.693 194.838,267.953 194.509,268.140 194.625 C 268.328 194.740,268.778 193.997,269.142 192.973 C 269.506 191.949,269.918 191.111,270.058 191.111 C 270.197 191.111,270.421 190.611,270.556 190.000 C 270.693 189.376,271.040 188.889,271.348 188.889 C 271.649 188.889,271.793 188.722,271.667 188.519 C 271.541 188.315,271.624 188.148,271.852 188.148 C 272.080 188.148,272.170 187.993,272.053 187.803 C 271.936 187.614,272.009 187.354,272.216 187.226 C 272.423 187.098,272.593 186.670,272.593 186.274 C 272.593 185.879,272.746 185.556,272.934 185.556 C 273.121 185.556,273.381 185.069,273.512 184.475 C 273.642 183.881,273.999 183.299,274.305 183.182 C 274.611 183.064,274.758 182.800,274.631 182.595 C 274.504 182.390,274.548 182.222,274.727 182.222 C 275.170 182.222,276.761 178.985,276.582 178.449 C 276.503 178.213,275.948 178.841,275.349 179.845 M222.565 181.944 C 222.293 182.861,222.307 183.704,222.595 183.704 C 222.797 183.704,222.963 183.551,222.963 183.364 C 222.963 183.177,223.064 182.760,223.188 182.438 C 223.311 182.115,223.228 181.852,223.003 181.852 C 222.777 181.852,222.580 181.894,222.565 181.944 M221.271 184.907 C 221.128 185.366,220.909 185.824,220.783 185.926 C 220.490 186.164,219.259 188.379,219.259 188.668 C 219.259 189.306,219.952 188.759,220.152 187.963 C 220.280 187.454,220.548 187.037,220.748 187.037 C 220.948 187.037,221.111 186.801,221.111 186.512 C 221.111 186.224,221.256 185.932,221.433 185.864 C 221.915 185.679,222.335 184.074,221.902 184.074 C 221.698 184.074,221.414 184.449,221.271 184.907 M218.519 189.788 C 218.519 190.079,218.291 190.545,218.012 190.824 C 217.481 191.355,216.838 192.950,216.964 193.426 C 217.004 193.579,216.870 193.704,216.667 193.704 C 216.463 193.704,216.296 193.870,216.296 194.074 C 216.296 194.835,217.032 194.409,217.255 193.519 C 217.383 193.009,217.617 192.593,217.775 192.593 C 218.062 192.593,218.634 191.172,218.559 190.648 C 218.537 190.495,218.685 190.370,218.889 190.370 C 219.093 190.370,219.259 190.120,219.259 189.815 C 219.259 189.509,219.093 189.259,218.889 189.259 C 218.685 189.259,218.519 189.497,218.519 189.788 M213.796 198.725 C 213.542 199.002,213.333 199.388,213.333 199.583 C 213.333 199.778,213.179 199.994,212.990 200.062 C 212.802 200.130,212.527 200.668,212.381 201.259 C 212.189 202.032,212.235 202.258,212.545 202.067 C 212.781 201.920,212.879 201.646,212.762 201.456 C 212.645 201.266,212.725 201.111,212.941 201.111 C 213.157 201.111,213.333 200.861,213.333 200.556 C 213.333 200.250,213.481 200.000,213.661 200.000 C 213.945 200.000,214.546 198.486,214.337 198.294 C 214.294 198.255,214.051 198.449,213.796 198.725 M210.741 204.233 C 210.741 204.524,210.464 205.039,210.125 205.378 C 208.931 206.572,210.431 206.656,231.481 206.572 L 252.407 206.488 231.389 206.389 C 212.906 206.302,209.025 206.134,210.692 205.494 C 211.195 205.300,211.591 203.704,211.136 203.704 C 210.919 203.704,210.741 203.942,210.741 204.233 M254.815 206.111 C 254.431 206.574,254.479 206.667,255.100 206.667 C 255.511 206.667,255.943 206.417,256.060 206.111 C 256.184 205.787,256.065 205.556,255.774 205.556 C 255.500 205.556,255.068 205.806,254.815 206.111 M133.132 295.134 C 130.524 296.725,129.704 300.467,131.431 302.893 C 135.626 308.784,145.644 302.972,141.894 296.822 C 140.499 294.534,135.649 293.600,133.132 295.134 M174.074 305.019 L 174.074 312.630 172.800 311.658 C 168.419 308.317,160.198 308.397,154.843 311.834 C 145.480 317.842,145.480 334.380,154.843 340.388 C 160.086 343.753,168.147 343.927,172.730 340.774 L 174.444 339.594 174.444 341.093 L 174.444 342.593 179.259 342.593 L 184.074 342.593 184.074 320.000 L 184.074 297.407 179.074 297.407 L 174.074 297.407 174.074 305.019 M106.296 306.296 L 106.296 310.370 103.704 310.370 L 101.111 310.370 101.111 314.074 L 101.111 317.778 103.680 317.778 L 106.249 317.778 106.365 326.759 L 106.481 335.741 107.569 337.704 C 110.416 342.842,121.290 345.023,126.000 341.400 C 126.532 340.991,124.903 335.471,123.854 334.129 C 123.797 334.057,123.370 334.266,122.905 334.592 C 122.411 334.938,121.309 335.185,120.264 335.185 C 116.333 335.185,115.926 334.214,115.926 324.827 L 115.926 317.778 120.000 317.778 L 124.074 317.778 124.074 314.074 L 124.074 310.370 120.000 310.370 L 115.926 310.370 115.926 306.296 L 115.926 302.222 111.111 302.222 L 106.296 302.222 106.296 306.296 M131.481 326.111 L 131.481 342.593 136.481 342.593 L 141.481 342.593 141.481 326.111 L 141.481 309.630 136.481 309.630 L 131.481 309.630 131.481 326.111 M188.674 312.500 C 190.120 315.849,198.833 336.042,200.440 339.769 C 202.772 345.176,198.016 348.805,192.632 345.728 C 191.737 345.216,190.961 344.843,190.908 344.899 C 190.571 345.249,187.407 351.479,187.407 351.792 C 187.407 353.112,192.354 354.630,196.658 354.630 C 203.246 354.630,206.702 352.529,209.449 346.852 C 210.769 344.125,224.761 311.394,225.084 310.278 C 225.256 309.684,224.869 309.630,220.506 309.630 L 215.741 309.631 214.877 311.760 C 210.132 323.454,206.835 331.057,206.609 330.831 C 206.458 330.679,204.895 327.056,203.137 322.778 C 201.378 318.500,199.438 313.792,198.824 312.315 L 197.709 309.630 192.572 309.630 L 187.436 309.630 188.674 312.500 M170.598 318.639 C 173.934 320.878,175.315 326.512,173.429 330.190 C 168.776 339.265,155.973 334.208,158.078 324.126 C 159.308 318.234,165.771 315.401,170.598 318.639 " stroke="none" fill="#7d18ea" fill-rule="evenodd"></path><path id="path1" d="M226.636 30.895 C 226.619 33.560,226.551 36.157,226.486 36.667 C 226.421 37.176,226.320 38.968,226.263 40.648 C 226.206 42.329,226.047 43.704,225.910 43.704 C 225.632 43.704,225.131 48.971,225.183 51.357 C 225.201 52.206,225.042 53.007,224.830 53.139 C 224.618 53.270,224.444 53.917,224.444 54.577 C 224.444 55.238,224.269 55.953,224.054 56.168 C 223.839 56.383,223.569 57.625,223.455 58.928 C 223.340 60.230,223.113 61.381,222.951 61.484 C 222.788 61.587,222.577 62.643,222.481 63.831 C 222.385 65.018,222.121 66.176,221.894 66.402 C 221.667 66.629,221.481 67.615,221.481 68.593 C 221.481 69.570,221.334 70.370,221.154 70.370 C 220.974 70.370,220.711 71.455,220.569 72.781 C 220.337 74.947,219.923 76.273,218.865 78.236 C 218.674 78.589,218.519 79.381,218.519 79.995 C 218.519 80.609,218.371 81.111,218.190 81.111 C 217.839 81.111,217.379 82.978,217.392 84.352 C 217.396 84.810,217.234 85.185,217.033 85.185 C 216.831 85.185,216.667 85.509,216.667 85.904 C 216.667 86.299,216.518 86.715,216.336 86.827 C 216.155 86.939,216.065 87.635,216.136 88.372 C 216.217 89.205,216.061 89.917,215.726 90.253 C 214.698 91.281,215.055 92.358,216.790 93.463 C 217.744 94.070,217.782 94.174,217.214 94.590 C 216.645 95.006,216.710 95.179,217.923 96.465 C 218.658 97.244,219.259 98.254,219.259 98.710 C 219.259 99.166,219.509 99.746,219.815 100.000 C 220.120 100.254,220.370 100.691,220.370 100.971 C 220.370 101.252,220.519 101.481,220.701 101.481 C 220.882 101.481,221.143 101.930,221.281 102.478 C 221.419 103.026,221.842 103.744,222.222 104.074 C 222.602 104.404,223.026 105.122,223.164 105.670 C 223.301 106.218,223.555 106.667,223.727 106.667 C 223.899 106.667,224.153 107.266,224.291 108.000 C 224.466 108.934,224.635 109.183,224.857 108.833 C 225.090 108.465,225.175 108.542,225.180 109.121 C 225.183 109.555,225.435 110.117,225.741 110.370 C 226.046 110.624,226.296 111.127,226.296 111.487 C 226.296 111.848,226.548 112.239,226.855 112.357 C 227.163 112.475,227.393 112.702,227.367 112.860 C 227.229 113.698,227.453 114.460,227.778 114.259 C 227.981 114.133,228.148 114.290,228.148 114.608 C 228.148 114.925,228.273 115.189,228.426 115.193 C 228.579 115.197,229.120 116.110,229.630 117.222 C 230.139 118.334,230.681 119.247,230.833 119.252 C 230.986 119.256,231.111 119.509,231.111 119.815 C 231.111 120.120,231.265 120.370,231.452 120.370 C 231.640 120.370,231.903 120.872,232.038 121.485 C 232.172 122.098,232.422 122.513,232.593 122.407 C 232.763 122.302,233.013 122.717,233.147 123.330 C 233.282 123.943,233.546 124.444,233.733 124.444 C 233.921 124.444,234.074 124.674,234.074 124.955 C 234.074 125.235,234.322 125.671,234.626 125.923 C 234.929 126.174,235.085 126.529,234.972 126.711 C 234.860 126.893,235.012 127.136,235.310 127.250 C 235.609 127.365,235.960 128.031,236.091 128.729 C 236.223 129.428,236.489 130.000,236.683 130.000 C 236.878 130.000,237.037 130.250,237.037 130.556 C 237.037 130.861,237.204 131.111,237.407 131.111 C 237.611 131.111,237.778 131.349,237.778 131.640 C 237.778 131.931,237.986 132.397,238.241 132.674 C 238.852 133.341,239.422 134.275,240.449 136.296 C 240.915 137.213,241.505 138.183,241.759 138.452 C 242.014 138.722,242.222 139.273,242.222 139.678 C 242.222 140.083,242.389 140.311,242.593 140.185 C 242.796 140.059,242.963 140.202,242.963 140.503 C 242.963 140.803,243.128 141.105,243.330 141.173 C 243.532 141.241,243.734 141.742,243.779 142.286 C 243.964 144.528,248.040 137.732,250.752 130.659 C 251.164 129.584,251.656 128.370,251.845 127.963 C 252.192 127.216,253.515 123.236,254.554 119.815 C 256.678 112.820,257.584 104.144,257.009 96.296 C 256.569 90.287,256.334 88.841,254.454 80.556 C 254.005 78.575,251.593 71.222,250.913 69.759 C 250.614 69.117,250.370 68.335,250.370 68.021 C 250.370 67.708,250.222 67.360,250.041 67.248 C 249.860 67.136,249.602 66.607,249.468 66.074 C 248.960 64.048,243.983 53.573,239.368 44.815 C 234.015 34.657,234.050 34.734,234.488 34.207 C 234.796 33.836,234.796 33.704,234.490 33.704 C 234.261 33.704,234.074 33.472,234.074 33.188 C 234.074 32.904,233.824 32.576,233.519 32.459 C 233.213 32.341,232.963 32.006,232.963 31.713 C 232.963 31.363,232.709 31.247,232.222 31.374 C 231.622 31.531,231.481 31.386,231.481 30.610 C 231.481 29.947,230.910 29.095,229.633 27.850 C 226.792 25.083,226.672 25.205,226.636 30.895 M228.272 27.620 C 227.990 28.355,227.891 28.287,227.687 27.219 C 227.547 26.487,227.611 26.375,227.992 26.691 C 228.257 26.911,228.383 27.329,228.272 27.620 M209.630 82.407 C 209.630 82.713,209.757 82.963,209.912 82.963 C 210.068 82.963,210.359 83.319,210.560 83.754 C 210.892 84.471,211.610 84.829,211.389 84.167 C 211.338 84.014,211.177 83.929,211.032 83.977 C 210.886 84.026,210.854 83.839,210.961 83.562 C 211.067 83.285,210.884 82.955,210.553 82.828 C 210.223 82.701,210.057 82.430,210.184 82.225 C 210.310 82.020,210.238 81.852,210.022 81.852 C 209.806 81.852,209.630 82.102,209.630 82.407 M212.593 87.407 C 212.593 88.099,212.691 88.198,213.037 87.852 C 213.383 87.506,213.383 87.309,213.037 86.963 C 212.691 86.617,212.593 86.716,212.593 87.407 M213.333 88.358 C 213.333 88.840,214.127 90.000,214.457 90.000 C 215.052 90.000,214.858 88.614,214.229 88.373 C 213.502 88.094,213.333 88.091,213.333 88.358 M287.407 127.562 C 287.407 127.952,288.523 129.008,288.724 128.807 C 288.817 128.714,288.559 128.335,288.150 127.965 C 287.742 127.595,287.407 127.414,287.407 127.562 M155.240 157.827 C 154.655 158.764,151.522 165.029,150.440 167.426 C 149.352 169.834,147.204 175.728,146.465 178.333 C 146.117 179.556,145.699 180.889,145.535 181.296 C 145.219 182.079,144.610 185.252,144.006 189.259 C 143.338 193.695,143.481 204.539,144.272 209.352 C 145.050 214.085,145.025 214.042,146.397 212.963 C 146.915 212.556,147.503 212.222,147.704 212.222 C 147.905 212.222,148.165 211.972,148.282 211.667 C 148.399 211.361,148.725 211.111,149.005 211.111 C 149.285 211.111,149.811 210.784,150.172 210.385 C 150.533 209.986,150.934 209.679,151.063 209.703 C 151.360 209.759,152.718 209.196,152.963 208.916 C 153.065 208.799,153.981 208.129,155.000 207.426 C 156.019 206.724,156.935 206.045,157.037 205.918 C 157.139 205.791,157.472 205.572,157.778 205.432 C 158.083 205.292,158.833 204.847,159.444 204.444 C 160.056 204.042,160.806 203.597,161.111 203.457 C 161.417 203.317,161.750 203.107,161.852 202.990 C 161.954 202.873,162.870 202.203,163.889 201.501 C 164.907 200.798,165.824 200.131,165.926 200.019 C 166.422 199.472,168.748 198.258,169.380 198.217 C 169.548 198.206,169.965 197.883,170.306 197.499 C 170.647 197.115,171.176 196.688,171.481 196.551 C 172.142 196.254,173.443 195.450,173.704 195.177 C 173.806 195.070,174.352 194.688,174.919 194.327 L 175.949 193.672 175.289 192.484 C 174.926 191.831,174.505 191.241,174.352 191.173 C 174.199 191.105,174.074 190.715,174.074 190.305 C 174.074 189.896,173.741 189.138,173.333 188.620 C 172.584 187.668,172.333 186.833,172.901 187.184 C 173.071 187.289,173.210 187.148,173.210 186.871 C 173.210 186.590,172.979 186.455,172.688 186.567 C 172.381 186.685,172.196 186.557,172.238 186.254 C 172.405 185.060,172.204 184.475,171.694 184.671 C 171.308 184.819,171.219 184.666,171.367 184.103 C 171.517 183.528,171.393 183.332,170.877 183.328 C 170.295 183.323,170.273 183.265,170.741 182.963 C 171.046 182.765,171.171 182.581,171.019 182.552 C 170.866 182.523,170.574 182.458,170.370 182.407 C 170.167 182.356,169.883 182.294,169.741 182.269 C 169.598 182.243,169.668 182.035,169.897 181.807 C 170.126 181.578,170.219 181.148,170.105 180.850 C 169.935 180.407,169.840 180.398,169.584 180.802 C 169.369 181.141,169.269 180.977,169.265 180.278 C 169.261 179.632,169.060 179.259,168.715 179.259 C 168.384 179.259,168.255 179.042,168.385 178.704 C 168.523 178.343,168.375 178.148,167.963 178.148 C 167.551 178.148,167.403 177.953,167.541 177.593 C 167.659 177.287,167.593 177.037,167.396 177.037 C 167.198 177.037,167.037 176.620,167.037 176.111 C 167.037 175.602,166.870 175.185,166.667 175.185 C 166.463 175.185,166.296 174.935,166.296 174.630 C 166.296 174.324,166.170 174.074,166.015 174.074 C 165.860 174.074,165.515 173.723,165.247 173.295 C 164.844 172.649,164.844 172.558,165.250 172.766 C 165.520 172.905,165.450 172.779,165.094 172.488 C 164.738 172.196,164.343 171.438,164.216 170.804 C 164.083 170.138,163.692 169.558,163.289 169.430 C 162.906 169.309,162.572 168.971,162.546 168.679 C 162.438 167.440,162.355 167.226,162.004 167.289 C 161.801 167.326,161.608 166.996,161.575 166.556 C 161.542 166.115,161.257 165.567,160.943 165.337 C 160.628 165.107,160.370 164.562,160.370 164.126 C 160.370 163.668,160.136 163.333,159.815 163.333 C 159.469 163.333,159.259 162.984,159.259 162.407 C 159.259 161.898,159.111 161.481,158.929 161.481 C 158.747 161.481,158.504 161.103,158.388 160.641 C 158.272 160.178,157.870 159.470,157.496 159.067 C 157.121 158.663,156.703 158.042,156.567 157.685 C 156.239 156.825,155.840 156.868,155.240 157.827 M263.007 202.266 C 261.585 203.688,261.287 204.074,261.613 204.074 C 261.787 204.074,263.341 202.575,264.224 201.556 C 265.405 200.191,264.627 200.646,263.007 202.266 M209.630 206.759 C 209.630 206.912,219.671 207.024,231.944 207.008 C 244.218 206.992,254.089 206.907,253.880 206.820 C 253.197 206.534,209.630 206.474,209.630 206.759 " stroke="none" fill="#53058b" fill-rule="evenodd"></path><path id="path2" d="M144.446 93.426 C 144.445 93.579,144.121 93.704,143.726 93.704 C 143.330 93.704,142.902 93.873,142.774 94.080 C 142.646 94.287,142.385 94.360,142.194 94.242 C 142.003 94.124,141.751 94.277,141.633 94.583 C 141.516 94.888,141.184 95.048,140.895 94.937 C 140.607 94.826,140.370 94.920,140.370 95.146 C 140.370 95.371,140.110 95.556,139.791 95.556 C 139.176 95.556,135.594 99.180,135.570 99.826 C 135.562 100.035,135.237 100.436,134.848 100.716 C 134.460 100.997,134.227 101.450,134.333 101.724 C 134.438 101.998,134.339 102.222,134.114 102.222 C 133.888 102.222,133.704 102.482,133.704 102.800 C 133.704 103.143,133.530 103.269,133.275 103.112 C 132.981 102.931,132.912 103.099,133.055 103.646 C 133.170 104.085,133.113 104.444,132.928 104.444 C 132.744 104.444,132.593 104.618,132.593 104.830 C 132.593 105.043,132.265 105.568,131.865 105.998 C 131.464 106.427,131.224 106.920,131.331 107.093 C 131.438 107.266,131.349 107.407,131.133 107.407 C 130.917 107.407,130.741 107.741,130.741 108.148 C 130.741 108.556,130.587 108.889,130.400 108.889 C 130.212 108.889,129.949 109.389,129.815 110.000 C 129.681 110.611,129.417 111.111,129.230 111.111 C 129.042 111.111,128.889 111.361,128.889 111.667 C 128.889 111.972,128.725 112.222,128.526 112.222 C 128.326 112.222,128.058 112.639,127.930 113.148 C 127.802 113.657,127.531 114.074,127.328 114.074 C 127.124 114.074,127.054 114.324,127.171 114.630 C 127.288 114.935,127.223 115.185,127.025 115.185 C 126.828 115.185,126.667 115.435,126.667 115.741 C 126.667 116.046,126.500 116.296,126.296 116.296 C 126.093 116.296,125.926 116.639,125.926 117.059 C 125.926 117.478,125.759 117.718,125.556 117.593 C 125.352 117.467,125.185 117.712,125.185 118.138 C 125.185 118.564,124.952 119.002,124.666 119.111 C 124.381 119.221,124.040 119.882,123.909 120.581 C 123.777 121.280,123.511 121.852,123.317 121.852 C 123.122 121.852,122.963 122.102,122.963 122.407 C 122.963 122.713,122.778 122.963,122.553 122.963 C 122.327 122.963,122.239 123.213,122.356 123.519 C 122.473 123.824,122.408 124.074,122.211 124.074 C 122.013 124.074,121.852 124.334,121.852 124.651 C 121.852 124.969,121.699 125.134,121.512 125.019 C 121.324 124.903,121.061 125.310,120.927 125.923 C 120.792 126.536,120.548 127.037,120.384 127.037 C 120.220 127.037,119.964 127.412,119.815 127.870 C 119.666 128.329,119.499 128.787,119.444 128.889 C 119.390 128.991,119.223 129.449,119.074 129.907 C 118.925 130.366,118.637 130.741,118.436 130.741 C 118.234 130.741,118.165 130.991,118.282 131.296 C 118.412 131.635,118.283 131.852,117.951 131.852 C 117.652 131.852,117.429 131.977,117.456 132.130 C 117.539 132.608,116.519 134.815,116.215 134.815 C 116.056 134.815,115.926 135.065,115.926 135.370 C 115.926 135.676,115.779 135.926,115.599 135.926 C 115.236 135.926,114.703 137.332,114.791 138.056 C 114.822 138.310,114.673 138.519,114.461 138.519 C 114.248 138.519,114.074 138.751,114.074 139.034 C 114.074 139.318,113.824 139.646,113.519 139.764 C 113.213 139.881,112.963 140.315,112.963 140.729 C 112.963 141.143,112.778 141.481,112.553 141.481 C 112.327 141.481,112.239 141.731,112.356 142.037 C 112.485 142.372,112.358 142.593,112.037 142.593 C 111.716 142.593,111.589 142.813,111.718 143.148 C 111.835 143.454,111.729 143.704,111.481 143.704 C 111.234 143.704,111.118 143.929,111.224 144.205 C 111.330 144.480,111.098 144.979,110.708 145.312 C 110.319 145.646,110.000 146.180,110.000 146.500 C 110.000 146.819,109.829 146.975,109.620 146.846 C 109.412 146.717,109.265 146.749,109.294 146.917 C 109.435 147.726,109.223 148.540,108.921 148.353 C 108.731 148.236,108.662 148.649,108.764 149.297 C 108.870 149.966,108.800 150.359,108.597 150.234 C 108.406 150.116,108.145 150.889,108.017 151.954 C 107.680 154.755,107.725 160.294,108.086 160.517 C 108.256 160.622,108.321 161.215,108.230 161.836 C 108.128 162.526,108.227 162.963,108.484 162.963 C 108.746 162.963,108.816 163.309,108.671 163.889 C 108.527 164.459,108.596 164.815,108.849 164.815 C 109.075 164.815,109.259 165.158,109.259 165.577 C 109.259 165.997,109.426 166.237,109.630 166.111 C 109.833 165.985,110.000 166.158,110.000 166.495 C 110.000 167.140,111.082 169.287,111.599 169.667 C 111.765 169.789,111.943 170.177,111.995 170.530 C 112.047 170.882,112.244 171.282,112.434 171.419 C 112.876 171.737,114.444 174.941,114.444 175.525 C 114.444 175.770,114.611 175.867,114.815 175.741 C 115.019 175.615,115.185 175.772,115.185 176.089 C 115.185 176.407,115.352 176.667,115.556 176.667 C 115.759 176.667,115.926 177.008,115.926 177.424 C 115.926 177.841,116.341 178.597,116.848 179.104 C 117.355 179.610,117.745 180.145,117.715 180.290 C 117.637 180.669,118.224 182.000,118.575 182.238 C 118.737 182.349,118.926 182.803,118.993 183.247 C 119.061 183.692,119.259 184.184,119.433 184.342 C 119.606 184.500,119.613 184.396,119.447 184.109 C 119.244 183.759,119.285 183.676,119.572 183.854 C 119.808 183.999,120.000 184.358,120.000 184.651 C 120.000 184.945,120.159 185.185,120.354 185.185 C 120.548 185.185,120.816 185.767,120.950 186.478 C 121.083 187.189,121.327 187.688,121.492 187.586 C 121.657 187.484,121.902 187.904,122.037 188.519 C 122.172 189.133,122.436 189.541,122.623 189.426 C 122.810 189.310,122.963 189.475,122.963 189.793 C 122.963 190.111,123.112 190.370,123.293 190.370 C 123.475 190.370,123.728 190.787,123.856 191.296 C 123.984 191.806,124.238 192.222,124.422 192.222 C 124.606 192.222,124.866 192.722,125.000 193.333 C 125.134 193.944,125.397 194.444,125.585 194.444 C 125.773 194.444,125.926 194.778,125.926 195.185 C 125.926 195.593,126.075 195.926,126.256 195.926 C 126.438 195.926,126.691 196.343,126.819 196.852 C 126.947 197.361,127.201 197.778,127.385 197.778 C 127.569 197.778,127.829 198.278,127.963 198.889 C 128.097 199.500,128.360 200.000,128.548 200.000 C 128.735 200.000,128.889 200.179,128.889 200.397 C 128.889 200.615,129.139 201.044,129.444 201.349 C 129.750 201.655,130.000 202.236,130.000 202.641 C 130.000 203.046,130.167 203.274,130.370 203.148 C 130.574 203.022,130.741 203.112,130.741 203.348 C 130.741 204.054,131.961 206.459,132.480 206.778 C 132.746 206.941,132.963 207.409,132.963 207.818 C 132.963 208.227,133.130 208.459,133.333 208.333 C 133.543 208.204,133.704 208.509,133.704 209.035 C 133.704 209.547,134.100 210.363,134.585 210.848 C 135.070 211.333,135.593 212.132,135.746 212.624 C 135.900 213.116,136.128 213.602,136.254 213.704 C 136.379 213.806,136.868 214.639,137.339 215.556 C 137.810 216.472,138.858 218.389,139.669 219.815 C 140.479 221.241,141.338 222.866,141.578 223.427 C 141.819 223.988,142.321 224.543,142.695 224.662 C 143.068 224.781,143.303 225.072,143.216 225.309 C 143.082 225.677,144.630 229.075,145.185 229.630 C 145.460 229.904,146.265 231.216,146.549 231.852 C 146.686 232.157,146.893 232.491,147.010 232.593 C 147.127 232.694,147.556 233.482,147.963 234.343 C 148.548 235.580,148.820 235.832,149.259 235.546 C 149.633 235.303,149.685 235.094,149.417 234.907 C 149.199 234.755,148.912 234.380,148.779 234.074 C 148.647 233.769,147.872 232.352,147.058 230.926 C 146.244 229.500,145.117 227.417,144.553 226.296 C 143.990 225.176,143.443 224.176,143.338 224.074 C 141.791 222.568,141.682 219.814,143.070 217.328 C 143.593 216.391,143.921 215.526,143.800 215.405 C 143.679 215.284,143.764 215.185,143.990 215.185 C 144.215 215.185,144.512 215.937,144.650 216.856 C 144.788 217.776,145.048 218.619,145.228 218.730 C 145.408 218.841,145.556 219.413,145.556 220.000 C 145.556 220.587,145.708 221.161,145.894 221.276 C 146.080 221.391,146.349 222.193,146.491 223.057 C 146.634 223.922,146.864 224.796,147.002 225.000 C 147.141 225.204,147.556 226.287,147.924 227.407 C 148.292 228.528,148.805 229.944,149.063 230.556 C 149.321 231.167,150.009 232.917,150.592 234.444 C 151.175 235.972,151.780 237.278,151.937 237.346 C 152.094 237.414,152.222 237.694,152.222 237.968 C 152.222 238.369,154.044 242.657,154.699 243.796 C 154.787 243.949,154.719 244.074,154.548 244.074 C 154.376 244.074,154.045 243.616,153.812 243.056 C 153.379 242.017,151.817 239.224,151.481 238.889 C 151.380 238.787,150.978 238.079,150.590 237.315 C 150.201 236.551,149.743 235.926,149.571 235.926 C 149.021 235.926,149.237 236.909,150.000 237.879 C 150.407 238.397,150.741 239.086,150.741 239.410 C 150.741 239.735,150.907 240.000,151.111 240.000 C 151.315 240.000,151.481 240.250,151.481 240.556 C 151.481 240.861,151.635 241.111,151.822 241.111 C 152.010 241.111,152.273 241.611,152.407 242.222 C 152.542 242.833,152.802 243.333,152.985 243.333 C 153.169 243.333,153.424 243.750,153.552 244.259 C 153.679 244.769,153.933 245.185,154.114 245.185 C 154.296 245.185,154.444 245.435,154.444 245.741 C 154.444 246.046,154.569 246.300,154.722 246.304 C 154.875 246.308,155.417 247.221,155.926 248.333 C 156.435 249.445,156.977 250.358,157.130 250.363 C 157.282 250.367,157.407 250.704,157.407 251.111 C 157.407 251.519,157.535 251.852,157.690 251.852 C 157.987 251.852,158.134 252.104,159.627 255.151 C 160.136 256.188,160.677 257.037,160.831 257.037 C 160.985 257.037,161.111 257.275,161.111 257.566 C 161.111 257.857,161.319 258.319,161.574 258.591 C 161.829 258.864,162.358 259.668,162.750 260.377 C 163.142 261.086,163.559 261.750,163.676 261.852 C 163.794 261.954,164.277 262.831,164.751 263.801 C 165.224 264.771,165.766 265.469,165.954 265.353 C 166.142 265.237,166.296 265.483,166.296 265.900 C 166.296 266.317,166.548 266.952,166.855 267.311 C 167.162 267.669,167.451 268.130,167.497 268.333 C 167.672 269.112,173.814 274.637,174.207 274.369 C 174.295 274.308,174.676 274.518,175.054 274.833 C 175.432 275.149,176.407 275.732,177.222 276.129 C 178.037 276.527,178.787 276.953,178.889 277.076 C 178.991 277.200,179.741 277.423,180.556 277.572 C 181.370 277.722,182.271 278.037,182.557 278.274 C 183.225 278.827,225.185 279.114,225.185 278.566 C 225.185 278.076,223.954 275.770,223.611 275.617 C 223.458 275.549,223.333 275.258,223.333 274.969 C 223.333 274.681,223.178 274.444,222.988 274.444 C 222.798 274.444,222.525 274.069,222.382 273.611 C 222.239 273.153,222.020 272.694,221.894 272.593 C 221.698 272.433,221.078 271.300,219.449 268.121 C 219.248 267.729,218.956 267.407,218.801 267.407 C 218.646 267.407,218.519 267.098,218.519 266.721 C 218.519 266.343,218.102 265.585,217.593 265.035 C 217.083 264.486,216.659 263.836,216.651 263.592 C 216.642 263.348,216.226 262.481,215.727 261.667 C 215.228 260.852,214.706 259.935,214.567 259.630 C 214.427 259.324,214.218 258.991,214.101 258.889 C 213.918 258.729,213.269 257.535,211.671 254.417 C 211.470 254.025,211.179 253.704,211.023 253.704 C 210.868 253.704,210.741 253.466,210.741 253.175 C 210.741 252.884,210.532 252.425,210.278 252.156 C 210.023 251.887,209.436 250.917,208.973 250.000 C 207.631 247.343,205.493 243.535,205.230 243.333 C 205.097 243.231,204.658 242.442,204.254 241.578 C 203.849 240.715,203.412 240.007,203.281 240.004 C 203.150 240.002,202.939 239.583,202.811 239.074 C 202.683 238.565,202.428 238.148,202.245 238.148 C 202.061 238.148,201.801 237.648,201.667 237.037 C 201.532 236.426,201.269 235.926,201.082 235.926 C 200.894 235.926,200.741 235.696,200.741 235.416 C 200.741 235.135,200.493 234.700,200.189 234.448 C 199.886 234.196,199.730 233.841,199.842 233.659 C 199.955 233.477,199.786 233.228,199.468 233.106 C 199.149 232.984,198.889 232.608,198.889 232.271 C 198.889 231.935,198.472 231.210,197.963 230.661 C 197.454 230.111,197.037 229.405,197.037 229.090 C 197.037 228.261,196.261 228.388,196.034 229.255 C 195.928 229.660,195.716 229.914,195.563 229.819 C 195.410 229.725,194.986 229.977,194.622 230.379 C 194.257 230.782,193.756 231.111,193.506 231.111 C 193.257 231.111,192.859 231.345,192.622 231.632 C 192.099 232.261,190.880 232.130,191.039 231.462 C 191.132 231.075,191.045 231.075,190.576 231.464 C 189.959 231.976,189.784 232.399,190.328 232.063 C 190.509 231.951,190.857 232.101,191.102 232.397 C 191.471 232.840,191.412 232.907,190.764 232.782 C 190.333 232.699,190.063 232.765,190.164 232.928 C 190.413 233.331,188.717 234.890,188.388 234.561 C 187.912 234.085,187.160 234.150,187.160 234.666 C 187.160 235.072,187.278 235.083,187.747 234.723 C 188.110 234.444,188.067 234.584,187.636 235.090 C 187.252 235.540,186.816 235.833,186.667 235.741 C 186.517 235.648,186.097 235.902,185.733 236.305 C 185.368 236.708,184.867 237.037,184.618 237.037 C 184.369 237.037,183.970 237.271,183.733 237.557 C 183.211 238.187,181.991 238.056,182.151 237.388 C 182.243 237.001,182.156 237.001,181.688 237.390 C 181.070 237.902,180.895 238.325,181.440 237.989 C 181.620 237.877,181.968 238.027,182.213 238.322 C 182.582 238.767,182.521 238.833,181.852 238.704 C 181.143 238.567,181.105 238.623,181.541 239.160 C 181.814 239.497,181.851 239.660,181.624 239.524 C 181.396 239.388,180.916 239.602,180.556 240.000 C 180.196 240.398,179.715 240.607,179.488 240.465 C 178.845 240.062,178.121 240.027,178.357 240.409 C 178.474 240.598,178.751 240.641,178.972 240.504 C 179.214 240.355,179.267 240.429,179.106 240.690 C 178.958 240.928,178.707 241.042,178.547 240.943 C 178.387 240.844,177.874 241.170,177.407 241.667 C 176.623 242.501,175.636 242.620,176.131 241.820 C 176.250 241.627,176.507 241.568,176.701 241.688 C 176.896 241.808,177.010 241.686,176.954 241.416 C 176.898 241.147,177.032 240.958,177.253 240.998 C 177.474 241.038,177.654 240.829,177.654 240.533 C 177.654 240.074,177.566 240.077,177.038 240.555 C 176.699 240.862,176.296 240.987,176.143 240.834 C 175.990 240.681,175.920 240.806,175.988 241.111 C 176.056 241.417,175.903 241.625,175.648 241.574 C 175.394 241.523,175.227 241.690,175.278 241.944 C 175.329 242.199,175.150 242.362,174.880 242.306 C 174.610 242.250,174.500 242.383,174.635 242.601 C 174.807 242.880,175.037 242.869,175.403 242.565 C 175.779 242.253,175.926 242.248,175.926 242.547 C 175.926 242.958,175.601 243.066,174.368 243.063 C 174.021 243.063,173.771 243.165,173.813 243.290 C 173.855 243.416,173.722 243.519,173.519 243.519 C 173.315 243.519,173.199 243.365,173.262 243.178 C 173.324 242.991,173.116 243.053,172.799 243.316 C 172.181 243.828,172.006 244.251,172.551 243.915 C 172.731 243.803,173.079 243.953,173.324 244.248 C 173.692 244.692,173.636 244.759,173.004 244.637 C 172.574 244.555,172.275 244.670,172.322 244.900 C 172.369 245.125,172.050 245.497,171.614 245.725 C 171.177 245.953,170.552 246.362,170.225 246.634 C 169.897 246.906,169.630 246.993,169.630 246.828 C 169.630 246.663,169.148 246.990,168.559 247.554 C 167.884 248.201,167.397 248.431,167.241 248.179 C 167.008 247.801,167.242 247.635,167.870 247.734 C 168.023 247.758,168.106 247.569,168.056 247.315 C 168.005 247.060,168.144 246.884,168.364 246.924 C 168.585 246.963,168.765 246.754,168.765 246.459 C 168.765 245.999,168.677 246.003,168.149 246.481 C 167.810 246.788,167.407 246.913,167.254 246.760 C 167.101 246.607,167.031 246.731,167.099 247.037 C 167.167 247.343,167.014 247.551,166.759 247.500 C 166.505 247.449,166.338 247.616,166.389 247.870 C 166.440 248.125,166.261 248.288,165.991 248.232 C 165.721 248.176,165.611 248.309,165.746 248.527 C 165.919 248.806,166.148 248.795,166.514 248.491 C 166.890 248.179,167.037 248.174,167.037 248.473 C 167.037 248.884,166.712 248.992,165.480 248.989 C 165.132 248.989,164.882 249.091,164.924 249.216 C 164.966 249.342,164.833 249.444,164.630 249.444 C 164.426 249.444,164.310 249.291,164.373 249.104 C 164.435 248.917,164.227 248.979,163.910 249.242 C 163.293 249.754,163.117 250.177,163.662 249.841 C 163.842 249.729,164.191 249.879,164.435 250.174 C 164.803 250.617,164.747 250.685,164.115 250.563 C 163.693 250.482,163.387 250.592,163.434 250.806 C 163.513 251.173,161.771 252.310,160.856 252.488 C 160.056 252.644,159.285 251.371,155.422 243.519 C 152.488 237.556,151.111 234.588,151.111 234.227 C 151.111 234.102,150.885 233.476,150.608 232.834 C 149.591 230.477,149.189 229.428,148.465 227.238 C 148.058 226.007,147.587 224.667,147.418 224.259 C 147.132 223.569,146.335 220.797,145.556 217.778 C 141.508 202.102,142.555 185.997,148.576 171.344 C 150.482 166.707,151.031 165.499,153.038 161.538 C 154.209 159.227,155.671 156.821,156.287 156.190 C 156.903 155.560,157.407 154.852,157.407 154.618 C 157.407 154.383,157.826 153.456,158.337 152.558 C 158.848 151.660,159.368 150.634,159.491 150.278 C 159.615 149.921,159.823 149.630,159.954 149.630 C 160.332 149.630,161.162 148.139,161.344 147.133 C 161.436 146.627,161.754 145.971,162.052 145.673 C 162.349 145.376,162.593 144.894,162.593 144.603 C 162.593 144.312,162.759 144.074,162.963 144.074 C 163.167 144.074,163.333 143.824,163.333 143.519 C 163.333 143.213,163.487 142.963,163.674 142.963 C 163.862 142.963,164.125 142.463,164.259 141.852 C 164.393 141.241,164.657 140.741,164.844 140.741 C 165.032 140.741,165.185 140.416,165.185 140.018 C 165.185 139.621,165.394 139.163,165.648 139.000 C 166.268 138.604,167.407 136.515,167.407 135.776 C 167.407 135.451,167.561 135.185,167.748 135.185 C 167.936 135.185,168.199 134.685,168.333 134.074 C 168.468 133.463,168.711 132.963,168.875 132.963 C 169.039 132.963,169.271 132.671,169.390 132.315 C 169.627 131.612,170.417 130.298,170.783 130.000 C 170.909 129.898,171.128 129.440,171.271 128.981 C 171.414 128.523,171.697 128.148,171.899 128.148 C 172.101 128.148,172.175 128.000,172.063 127.820 C 171.951 127.639,172.108 127.285,172.411 127.034 C 172.715 126.782,172.963 126.275,172.963 125.907 C 172.963 125.539,173.191 125.010,173.470 124.731 C 173.748 124.453,174.106 123.816,174.263 123.316 C 174.421 122.816,174.868 122.131,175.256 121.793 C 175.644 121.455,176.059 120.580,176.177 119.849 C 176.296 119.117,176.541 118.519,176.721 118.519 C 176.901 118.519,177.338 117.894,177.691 117.130 C 178.044 116.366,178.542 115.607,178.796 115.445 C 179.051 115.282,179.259 114.816,179.259 114.411 C 179.259 114.005,179.599 113.308,180.014 112.862 C 180.430 112.416,180.864 111.673,180.980 111.211 C 181.096 110.749,181.332 110.370,181.505 110.370 C 181.677 110.370,181.926 109.799,182.057 109.100 C 182.188 108.401,182.539 107.735,182.838 107.621 C 183.136 107.506,183.277 107.245,183.150 107.040 C 183.023 106.835,183.093 106.667,183.304 106.667 C 183.516 106.667,183.794 106.250,183.922 105.741 C 184.050 105.231,184.290 104.815,184.455 104.815 C 184.621 104.815,184.866 104.315,185.000 103.704 C 185.134 103.093,185.358 102.593,185.498 102.593 C 185.763 102.593,187.037 99.865,187.037 99.296 C 187.037 99.116,187.287 98.872,187.593 98.755 C 187.898 98.638,188.148 98.287,188.148 97.975 C 188.148 97.663,188.281 97.407,188.443 97.407 C 188.605 97.407,189.046 96.657,189.424 95.741 C 189.802 94.824,190.295 94.069,190.519 94.062 C 190.743 94.056,190.593 93.799,190.187 93.492 C 189.387 92.888,144.448 92.822,144.446 93.426 M144.074 214.281 C 144.074 214.575,143.907 214.815,143.704 214.815 C 143.500 214.815,143.333 214.472,143.333 214.052 C 143.333 213.633,143.500 213.393,143.704 213.519 C 143.907 213.644,144.074 213.988,144.074 214.281 M194.267 229.251 C 193.903 229.653,193.456 229.891,193.275 229.779 C 193.093 229.666,192.990 229.795,193.046 230.065 C 193.102 230.335,192.940 230.514,192.685 230.463 C 192.431 230.412,192.264 230.579,192.315 230.833 C 192.366 231.088,192.187 231.251,191.917 231.195 C 191.641 231.137,191.537 231.271,191.678 231.500 C 191.845 231.770,192.208 231.647,192.752 231.136 C 193.204 230.711,193.700 230.490,193.855 230.645 C 194.009 230.799,194.080 230.676,194.012 230.370 C 193.944 230.065,194.097 229.856,194.352 229.907 C 194.606 229.958,194.773 229.792,194.722 229.537 C 194.671 229.282,194.850 229.120,195.120 229.176 C 195.390 229.232,195.505 229.107,195.376 228.898 C 195.064 228.394,195.034 228.403,194.267 229.251 M185.566 234.989 C 185.094 235.492,184.561 235.813,184.381 235.702 C 184.202 235.591,184.102 235.721,184.157 235.991 C 184.213 236.261,184.051 236.440,183.796 236.389 C 183.542 236.338,183.375 236.505,183.426 236.759 C 183.477 237.014,183.298 237.176,183.028 237.120 C 182.752 237.063,182.648 237.197,182.789 237.426 C 182.956 237.696,183.319 237.573,183.863 237.062 C 184.315 236.637,184.811 236.416,184.966 236.571 C 185.120 236.725,185.191 236.602,185.123 236.296 C 185.056 235.991,185.208 235.782,185.463 235.833 C 185.718 235.884,185.884 235.718,185.833 235.463 C 185.782 235.208,185.921 235.032,186.142 235.072 C 186.363 235.112,186.543 234.903,186.543 234.609 C 186.543 233.926,186.577 233.913,185.566 234.989 M290.027 293.568 C 288.383 295.659,289.643 298.519,292.208 298.519 C 294.022 298.519,295.149 297.588,295.426 295.861 C 295.885 292.993,291.832 291.273,290.027 293.568 M241.852 320.135 C 241.852 332.734,242.045 334.849,243.484 337.991 C 247.401 346.548,261.867 348.423,269.149 341.318 L 271.481 339.042 271.481 342.299 L 271.481 345.556 273.519 345.556 L 275.556 345.556 275.556 326.852 L 275.556 308.148 273.519 308.148 L 271.481 308.148 271.481 319.056 C 271.481 332.936,270.976 335.383,267.390 338.863 C 262.323 343.780,252.280 343.425,248.250 338.187 C 246.080 335.365,245.926 334.191,245.926 320.488 L 245.926 308.148 243.889 308.148 L 241.852 308.148 241.852 320.135 M290.370 326.852 L 290.370 345.556 292.407 345.556 L 294.444 345.556 294.444 326.852 L 294.444 308.148 292.407 308.148 L 290.370 308.148 290.370 326.852 " stroke="none" fill="#c822c0" fill-rule="evenodd"></path><path id="path3" d="M146.296 93.015 C 146.296 93.329,151.774 93.368,167.736 93.165 C 183.435 92.965,189.386 93.005,189.959 93.311 C 190.597 93.653,190.741 93.625,190.741 93.161 C 190.741 92.656,188.251 92.593,168.519 92.593 C 152.130 92.593,146.296 92.703,146.296 93.015 M136.904 97.294 C 136.162 98.058,135.556 98.851,135.556 99.058 C 135.556 99.264,136.256 98.733,137.111 97.878 C 137.967 97.022,138.574 96.228,138.460 96.114 C 138.345 96.000,137.645 96.531,136.904 97.294 M134.500 100.224 C 133.825 100.987,134.259 101.349,134.982 100.626 C 135.298 100.311,135.556 99.958,135.556 99.841 C 135.556 99.452,135.006 99.652,134.500 100.224 M131.522 105.869 C 130.643 107.104,130.566 107.407,131.133 107.407 C 131.349 107.407,131.438 107.266,131.331 107.093 C 131.224 106.920,131.481 106.409,131.902 105.958 C 132.323 105.506,132.585 105.054,132.485 104.954 C 132.385 104.854,131.952 105.266,131.522 105.869 M128.413 111.446 C 127.630 112.772,127.596 113.197,128.333 112.460 C 128.639 112.155,128.889 111.726,128.889 111.508 C 128.889 111.290,129.056 111.111,129.259 111.111 C 129.463 111.111,129.630 110.944,129.630 110.741 C 129.630 110.036,129.046 110.375,128.413 111.446 M110.370 144.414 C 110.370 144.601,110.261 145.038,110.128 145.385 C 109.909 145.956,109.960 145.953,110.665 145.349 C 111.093 144.983,111.359 144.546,111.255 144.378 C 111.001 143.966,110.370 143.992,110.370 144.414 M151.834 163.740 C 151.408 164.574,151.123 165.320,151.201 165.398 C 151.278 165.476,151.704 164.793,152.148 163.881 C 153.157 161.803,152.884 161.680,151.834 163.740 M145.599 179.877 C 145.575 180.115,145.448 180.615,145.316 180.988 C 145.130 181.515,145.179 181.572,145.536 181.243 C 145.789 181.010,145.916 180.510,145.818 180.132 C 145.721 179.754,145.622 179.639,145.599 179.877 M144.687 183.611 C 144.315 184.968,144.085 187.224,144.395 186.481 C 144.748 185.637,145.209 182.963,145.002 182.963 C 144.926 182.963,144.785 183.255,144.687 183.611 M172.222 186.296 C 172.222 186.500,172.399 186.667,172.614 186.667 C 172.830 186.667,172.894 186.849,172.756 187.072 C 172.618 187.295,172.858 187.955,173.290 188.539 C 173.721 189.122,174.074 189.926,174.074 190.325 C 174.074 190.723,174.199 191.105,174.352 191.173 C 174.505 191.241,174.926 191.831,175.289 192.484 L 175.949 193.672 174.919 194.327 C 174.352 194.688,173.806 195.070,173.704 195.177 C 173.443 195.450,172.142 196.254,171.481 196.551 C 171.176 196.688,170.647 197.115,170.306 197.499 C 169.965 197.883,169.548 198.206,169.380 198.217 C 168.748 198.258,166.422 199.472,165.926 200.019 C 165.824 200.131,164.907 200.798,163.889 201.501 C 162.870 202.203,161.954 202.873,161.852 202.990 C 161.750 203.107,161.417 203.317,161.111 203.457 C 160.806 203.597,160.056 204.042,159.444 204.444 C 158.833 204.847,158.083 205.292,157.778 205.432 C 157.472 205.572,157.139 205.791,157.037 205.918 C 156.935 206.045,156.019 206.724,155.000 207.426 C 153.981 208.129,153.065 208.799,152.963 208.916 C 152.718 209.196,151.360 209.759,151.063 209.703 C 150.934 209.679,150.533 209.986,150.172 210.385 C 149.811 210.784,149.285 211.111,149.005 211.111 C 148.725 211.111,148.399 211.361,148.282 211.667 C 148.165 211.972,147.905 212.222,147.704 212.222 C 147.503 212.222,146.915 212.556,146.397 212.963 C 145.879 213.370,145.350 213.704,145.222 213.704 C 144.120 213.704,143.101 197.113,143.800 190.556 C 143.997 188.705,143.974 188.550,143.662 189.630 C 143.096 191.594,143.090 205.242,143.655 208.519 C 144.194 211.646,145.054 215.835,145.556 217.778 C 146.335 220.797,147.132 223.569,147.418 224.259 C 147.587 224.667,148.058 226.007,148.465 227.238 C 149.189 229.428,149.591 230.477,150.608 232.834 C 150.885 233.476,151.111 234.102,151.111 234.227 C 151.111 235.181,159.048 251.048,160.004 252.004 C 160.743 252.743,163.635 251.733,163.434 250.806 C 163.387 250.592,163.693 250.482,164.115 250.563 C 164.747 250.685,164.803 250.617,164.435 250.174 C 164.191 249.879,163.801 249.751,163.569 249.890 C 163.338 250.029,163.377 249.860,163.656 249.516 C 164.191 248.857,164.508 248.698,164.352 249.167 C 164.301 249.319,164.426 249.444,164.630 249.444 C 164.833 249.444,164.966 249.342,164.924 249.216 C 164.882 249.091,165.132 248.989,165.480 248.989 C 166.712 248.992,167.037 248.884,167.037 248.473 C 167.037 248.174,166.890 248.179,166.514 248.491 C 166.148 248.795,165.919 248.806,165.746 248.527 C 165.611 248.309,165.721 248.176,165.991 248.232 C 166.261 248.288,166.440 248.125,166.389 247.870 C 166.338 247.616,166.505 247.449,166.759 247.500 C 167.014 247.551,167.167 247.343,167.099 247.037 C 167.031 246.731,167.101 246.607,167.254 246.760 C 167.407 246.913,167.810 246.788,168.149 246.481 C 168.677 246.003,168.765 245.999,168.765 246.459 C 168.765 246.754,168.585 246.963,168.364 246.924 C 168.144 246.884,168.005 247.060,168.056 247.315 C 168.106 247.569,168.023 247.736,167.870 247.685 C 167.718 247.634,167.551 247.718,167.500 247.870 C 167.245 248.634,167.505 248.563,168.519 247.593 C 169.130 247.007,169.630 246.663,169.630 246.828 C 169.630 246.993,169.897 246.906,170.225 246.634 C 170.552 246.362,171.177 245.953,171.614 245.725 C 172.050 245.497,172.369 245.125,172.322 244.900 C 172.275 244.670,172.574 244.555,173.004 244.637 C 173.636 244.759,173.692 244.692,173.324 244.248 C 173.079 243.953,172.690 243.825,172.458 243.964 C 172.226 244.103,172.266 243.934,172.545 243.590 C 173.080 242.931,173.397 242.772,173.241 243.241 C 173.190 243.394,173.315 243.519,173.519 243.519 C 173.722 243.519,173.855 243.416,173.813 243.290 C 173.771 243.165,174.021 243.063,174.368 243.063 C 175.601 243.066,175.926 242.958,175.926 242.547 C 175.926 242.248,175.779 242.253,175.403 242.565 C 175.037 242.869,174.807 242.880,174.635 242.601 C 174.500 242.383,174.610 242.250,174.880 242.306 C 175.150 242.362,175.329 242.199,175.278 241.944 C 175.227 241.690,175.394 241.523,175.648 241.574 C 175.903 241.625,176.056 241.417,175.988 241.111 C 175.920 240.806,175.990 240.681,176.143 240.834 C 176.296 240.987,176.699 240.862,177.038 240.555 C 177.566 240.077,177.654 240.074,177.654 240.533 C 177.654 240.829,177.474 241.038,177.253 240.998 C 177.032 240.958,176.898 241.147,176.954 241.416 C 177.010 241.686,176.896 241.808,176.701 241.688 C 176.507 241.568,176.250 241.627,176.131 241.820 C 175.636 242.620,176.623 242.501,177.407 241.667 C 177.874 241.170,178.387 240.844,178.547 240.943 C 178.707 241.042,178.958 240.928,179.106 240.690 C 179.267 240.429,179.214 240.355,178.972 240.504 C 178.751 240.641,178.474 240.598,178.357 240.409 C 178.121 240.027,178.845 240.062,179.488 240.465 C 179.715 240.607,180.196 240.398,180.556 240.000 C 180.916 239.602,181.396 239.388,181.624 239.524 C 181.851 239.660,181.814 239.497,181.541 239.160 C 181.105 238.623,181.143 238.567,181.852 238.704 C 182.521 238.833,182.582 238.767,182.213 238.322 C 181.968 238.027,181.578 237.899,181.347 238.038 C 181.115 238.177,181.155 238.008,181.434 237.664 C 182.023 236.937,182.261 236.865,182.130 237.451 C 181.991 238.072,183.237 238.155,183.733 237.557 C 183.970 237.271,184.369 237.037,184.618 237.037 C 184.867 237.037,185.368 236.708,185.733 236.305 C 186.097 235.902,186.517 235.648,186.667 235.741 C 186.816 235.833,187.252 235.540,187.636 235.090 C 188.067 234.584,188.110 234.444,187.747 234.723 C 187.278 235.083,187.160 235.072,187.160 234.666 C 187.160 234.142,187.657 234.089,188.372 234.536 C 188.832 234.824,190.510 233.226,190.138 232.855 C 190.007 232.723,190.270 232.687,190.724 232.774 C 191.408 232.906,191.472 232.842,191.102 232.397 C 190.857 232.101,190.509 231.951,190.328 232.063 C 189.784 232.399,189.959 231.976,190.576 231.464 C 191.045 231.075,191.132 231.075,191.039 231.462 C 190.880 232.130,192.099 232.261,192.622 231.632 C 192.859 231.345,193.257 231.111,193.506 231.111 C 193.756 231.111,194.257 230.782,194.622 230.379 C 194.986 229.977,195.393 229.714,195.526 229.797 C 195.660 229.879,195.999 229.426,196.280 228.791 C 196.660 227.934,196.680 227.597,196.359 227.490 C 196.121 227.411,195.926 227.127,195.926 226.861 C 195.926 226.594,195.674 226.279,195.367 226.161 C 195.059 226.043,194.829 225.817,194.855 225.658 C 195.021 224.650,194.748 224.053,194.167 224.150 C 193.661 224.235,193.542 224.036,193.625 223.241 C 193.684 222.681,193.559 222.222,193.347 222.222 C 193.136 222.222,192.963 221.972,192.963 221.667 C 192.963 221.361,192.799 221.111,192.600 221.111 C 192.400 221.111,192.132 220.694,192.004 220.185 C 191.876 219.676,191.623 219.259,191.441 219.259 C 191.260 219.259,191.111 218.926,191.111 218.519 C 191.111 218.111,190.935 217.778,190.719 217.778 C 190.503 217.778,190.423 217.623,190.540 217.433 C 190.657 217.243,190.588 216.986,190.386 216.862 C 190.185 216.737,189.733 216.017,189.382 215.262 C 189.031 214.507,188.526 213.756,188.261 213.593 C 187.995 213.430,187.778 212.971,187.778 212.574 C 187.778 212.177,187.629 211.852,187.448 211.852 C 187.266 211.852,187.005 211.403,186.867 210.855 C 186.730 210.307,186.319 209.599,185.954 209.281 C 185.589 208.964,185.162 208.287,185.003 207.778 C 184.845 207.269,184.612 206.769,184.487 206.667 C 184.121 206.369,183.330 205.055,183.094 204.352 C 182.975 203.995,182.729 203.704,182.549 203.704 C 182.369 203.704,182.222 203.521,182.222 203.297 C 182.222 202.852,181.090 200.298,180.760 200.000 C 180.522 199.785,179.589 198.147,178.649 196.296 C 178.287 195.583,177.776 194.780,177.514 194.511 C 177.252 194.241,177.037 193.783,177.037 193.492 C 177.037 193.201,176.888 192.963,176.707 192.963 C 176.525 192.963,176.264 192.515,176.126 191.966 C 175.989 191.418,175.578 190.710,175.213 190.392 C 174.849 190.075,174.421 189.398,174.262 188.889 C 174.104 188.380,173.788 187.844,173.561 187.699 C 173.334 187.553,173.127 187.262,173.102 187.051 C 173.076 186.839,173.035 186.500,173.009 186.296 C 172.984 186.093,172.796 185.926,172.593 185.926 C 172.389 185.926,172.222 186.093,172.222 186.296 M124.513 193.150 C 124.745 193.660,124.985 194.028,125.045 193.967 C 125.271 193.742,124.717 192.222,124.409 192.222 C 124.234 192.222,124.280 192.640,124.513 193.150 M195.376 228.898 C 195.505 229.107,195.390 229.232,195.120 229.176 C 194.850 229.120,194.671 229.282,194.722 229.537 C 194.773 229.792,194.606 229.958,194.352 229.907 C 194.097 229.856,193.944 230.065,194.012 230.370 C 194.080 230.676,194.009 230.799,193.855 230.645 C 193.700 230.490,193.204 230.711,192.752 231.136 C 192.208 231.647,191.845 231.770,191.678 231.500 C 191.537 231.271,191.641 231.137,191.917 231.195 C 192.187 231.251,192.366 231.088,192.315 230.833 C 192.264 230.579,192.431 230.412,192.685 230.463 C 192.940 230.514,193.102 230.335,193.046 230.065 C 192.990 229.795,193.093 229.666,193.275 229.779 C 193.456 229.891,193.903 229.653,194.267 229.251 C 195.034 228.403,195.064 228.394,195.376 228.898 M186.543 234.609 C 186.543 234.903,186.363 235.112,186.142 235.072 C 185.921 235.032,185.782 235.208,185.833 235.463 C 185.884 235.718,185.718 235.884,185.463 235.833 C 185.208 235.782,185.056 235.991,185.123 236.296 C 185.191 236.602,185.120 236.725,184.966 236.571 C 184.811 236.416,184.315 236.637,183.863 237.062 C 183.319 237.573,182.956 237.696,182.789 237.426 C 182.648 237.197,182.752 237.063,183.028 237.120 C 183.298 237.176,183.477 237.014,183.426 236.759 C 183.375 236.505,183.542 236.338,183.796 236.389 C 184.051 236.440,184.213 236.261,184.157 235.991 C 184.102 235.721,184.202 235.591,184.381 235.702 C 184.561 235.813,185.094 235.492,185.566 234.989 C 186.577 233.913,186.543 233.926,186.543 234.609 M197.671 362.597 C 197.150 363.007,196.614 363.840,196.480 364.449 C 196.314 365.209,196.015 365.556,195.526 365.556 C 194.983 365.556,194.815 365.818,194.815 366.667 C 194.815 367.531,194.979 367.778,195.556 367.778 C 196.245 367.778,196.296 368.025,196.296 371.319 L 196.296 374.860 197.685 374.745 L 199.074 374.630 199.181 371.204 C 199.285 367.839,199.303 367.778,200.199 367.778 C 200.966 367.778,201.111 367.600,201.111 366.667 C 201.111 365.728,200.967 365.556,200.185 365.556 C 199.641 365.556,199.259 365.343,199.259 365.040 C 199.259 364.430,200.158 364.016,200.881 364.293 C 201.378 364.484,201.969 362.463,201.541 362.035 C 201.059 361.553,198.532 361.920,197.671 362.597 M202.593 363.109 C 202.593 364.505,203.216 364.951,204.659 364.589 C 206.416 364.148,205.925 361.852,204.074 361.852 C 202.637 361.852,202.593 361.889,202.593 363.109 M222.783 365.093 C 220.974 367.398,220.816 367.778,221.667 367.778 C 222.101 367.778,222.223 368.284,222.228 370.093 C 222.236 373.754,223.725 375.354,226.480 374.663 C 227.856 374.318,227.701 372.420,226.296 372.413 C 225.420 372.408,225.364 372.284,225.260 370.093 C 225.152 367.830,225.171 367.778,226.093 367.778 C 226.895 367.778,227.037 367.610,227.037 366.667 C 227.037 365.728,226.893 365.556,226.111 365.556 C 225.300 365.556,225.185 365.395,225.185 364.259 C 225.185 362.465,224.719 362.627,222.783 365.093 M173.333 368.530 C 173.333 374.120,175.080 375.632,180.324 374.583 L 181.481 374.352 181.481 369.954 L 181.481 365.556 180.000 365.556 L 178.519 365.556 178.519 369.074 C 178.519 372.215,178.447 372.593,177.852 372.593 C 176.607 372.593,176.296 371.802,176.296 368.630 L 176.296 365.556 174.815 365.556 L 173.333 365.556 173.333 368.530 M182.593 365.708 C 182.593 365.792,182.948 366.790,183.383 367.926 L 184.174 369.993 183.198 372.243 C 181.994 375.019,181.966 374.815,183.550 374.815 C 184.793 374.815,184.929 374.695,185.661 372.963 C 186.091 371.944,186.544 371.111,186.667 371.111 C 186.790 371.111,187.242 371.944,187.672 372.963 C 188.404 374.695,188.540 374.815,189.783 374.815 C 191.367 374.815,191.339 375.019,190.135 372.243 L 189.159 369.993 189.950 367.926 C 190.385 366.790,190.741 365.792,190.741 365.708 C 190.741 364.444,187.813 365.774,187.407 367.222 C 187.151 368.139,186.817 368.889,186.667 368.889 C 186.516 368.889,186.183 368.139,185.926 367.222 C 185.521 365.774,182.593 364.444,182.593 365.708 M201.852 366.667 C 201.852 367.407,202.037 367.778,202.407 367.778 C 202.862 367.778,202.963 368.416,202.963 371.296 L 202.963 374.815 204.259 374.815 L 205.556 374.815 205.556 370.185 L 205.556 365.556 203.704 365.556 C 201.893 365.556,201.852 365.580,201.852 366.667 M207.778 370.185 L 207.778 374.815 209.074 374.815 L 210.370 374.815 210.370 372.108 C 210.370 369.141,210.772 368.268,212.222 368.082 C 213.683 367.894,213.818 365.556,212.367 365.556 C 211.810 365.556,211.050 365.831,210.677 366.169 C 210.047 366.739,210.000 366.739,210.000 366.169 C 210.000 365.734,209.676 365.556,208.889 365.556 L 207.778 365.556 207.778 370.185 M214.885 366.311 C 213.212 367.869,214.007 370.206,216.481 371.001 C 218.280 371.579,217.900 372.418,215.870 372.351 C 214.281 372.298,214.132 372.370,213.958 373.276 C 213.705 374.591,213.778 374.630,216.473 374.630 C 221.085 374.630,222.420 370.362,218.241 368.978 C 216.149 368.285,216.187 367.627,218.305 367.866 C 219.816 368.036,219.962 367.978,220.179 367.116 C 220.609 365.400,216.528 364.780,214.885 366.311 " stroke="none" fill="#94247c" fill-rule="evenodd"></path><path id="path4" d="M243.110 50.151 C 243.000 50.438,243.569 52.063,244.376 53.763 C 257.339 81.081,260.456 100.326,254.982 119.259 C 254.658 120.380,254.259 121.796,254.095 122.407 C 252.829 127.121,245.712 142.784,244.651 143.191 C 244.360 143.303,244.211 143.631,244.322 143.920 C 244.433 144.208,244.339 144.444,244.114 144.444 C 243.888 144.444,243.704 144.694,243.704 145.000 C 243.704 145.306,243.555 145.556,243.373 145.556 C 243.192 145.556,242.939 145.972,242.811 146.481 C 242.683 146.991,242.415 147.407,242.215 147.407 C 242.015 147.407,241.852 147.657,241.852 147.963 C 241.852 148.269,241.671 148.519,241.451 148.519 C 241.230 148.519,241.123 148.727,241.213 148.981 C 241.302 149.236,241.088 149.861,240.737 150.370 C 240.385 150.880,239.981 151.671,239.838 152.130 C 239.696 152.588,239.424 152.963,239.234 152.963 C 239.044 152.963,238.889 153.213,238.889 153.519 C 238.889 153.824,238.727 154.074,238.530 154.074 C 238.333 154.074,238.267 154.324,238.385 154.630 C 238.502 154.935,238.413 155.185,238.188 155.185 C 237.962 155.185,237.778 155.435,237.778 155.741 C 237.778 156.046,237.624 156.296,237.437 156.296 C 237.249 156.296,236.986 156.796,236.852 157.407 C 236.718 158.019,236.454 158.519,236.267 158.519 C 236.079 158.519,235.926 158.748,235.926 159.029 C 235.926 159.309,235.676 159.746,235.370 160.000 C 235.065 160.254,234.815 160.774,234.815 161.156 C 234.815 161.539,234.648 161.852,234.444 161.852 C 234.241 161.852,234.074 162.102,234.074 162.407 C 234.074 162.713,233.913 162.963,233.715 162.963 C 233.518 162.963,233.453 163.213,233.570 163.519 C 233.687 163.824,233.640 164.076,233.466 164.078 C 233.291 164.081,232.830 164.747,232.440 165.560 C 232.051 166.372,231.593 167.037,231.422 167.037 C 231.251 167.037,231.111 167.303,231.111 167.628 C 231.111 168.168,230.088 170.300,229.617 170.741 C 229.508 170.843,229.010 171.801,228.511 172.870 C 228.012 173.940,227.476 174.815,227.320 174.815 C 227.164 174.815,227.037 175.065,227.037 175.370 C 227.037 175.676,226.853 175.926,226.627 175.926 C 226.402 175.926,226.313 176.176,226.430 176.481 C 226.547 176.787,226.482 177.037,226.285 177.037 C 226.087 177.037,225.926 177.287,225.926 177.593 C 225.926 177.898,225.773 178.148,225.585 178.148 C 225.397 178.148,225.134 178.648,225.000 179.259 C 224.866 179.870,224.603 180.370,224.415 180.370 C 224.227 180.370,224.074 180.620,224.074 180.926 C 224.074 181.231,223.921 181.481,223.733 181.481 C 223.546 181.481,223.282 181.981,223.148 182.593 C 223.014 183.204,222.764 183.704,222.593 183.704 C 222.421 183.704,222.171 184.204,222.037 184.815 C 221.903 185.426,221.640 185.926,221.452 185.926 C 221.265 185.926,221.111 186.176,221.111 186.481 C 221.111 186.787,220.948 187.037,220.748 187.037 C 220.548 187.037,220.280 187.454,220.152 187.963 C 220.024 188.472,219.771 188.889,219.589 188.889 C 219.408 188.889,219.259 189.222,219.259 189.630 C 219.259 190.037,219.093 190.370,218.889 190.370 C 218.685 190.370,218.537 190.495,218.559 190.648 C 218.639 191.208,218.052 192.593,217.735 192.593 C 217.555 192.593,217.407 192.852,217.407 193.170 C 217.407 193.488,217.243 193.646,217.041 193.521 C 216.831 193.391,216.769 193.540,216.896 193.870 C 217.017 194.186,216.932 194.444,216.706 194.444 C 216.481 194.444,216.296 194.694,216.296 195.000 C 216.296 195.306,216.135 195.556,215.938 195.556 C 215.740 195.556,215.675 195.806,215.792 196.111 C 215.909 196.417,215.821 196.667,215.595 196.667 C 215.370 196.667,215.185 196.917,215.185 197.222 C 215.185 197.528,215.019 197.778,214.815 197.778 C 214.611 197.778,214.433 198.069,214.418 198.426 C 214.396 198.984,214.345 198.972,214.049 198.333 C 213.788 197.771,213.757 197.882,213.919 198.796 C 214.052 199.543,213.981 200.000,213.733 200.000 C 213.513 200.000,213.333 200.250,213.333 200.556 C 213.333 200.861,213.167 201.111,212.963 201.111 C 212.759 201.111,212.611 201.236,212.633 201.389 C 212.708 201.913,212.136 203.333,211.849 203.333 C 211.691 203.333,211.447 203.790,211.307 204.348 C 211.167 204.906,210.862 205.481,210.630 205.624 C 210.397 205.768,210.296 205.975,210.406 206.085 C 210.820 206.499,254.511 206.332,255.013 205.915 C 255.281 205.692,255.721 205.557,255.991 205.615 C 256.754 205.776,261.073 203.316,262.578 201.863 C 264.034 200.457,264.545 199.719,266.268 196.533 C 267.984 193.361,268.315 192.792,268.561 192.593 C 268.687 192.491,268.919 191.991,269.078 191.481 C 269.237 190.972,269.760 189.934,270.239 189.174 C 270.719 188.414,271.111 187.636,271.111 187.446 C 271.111 187.255,271.236 187.043,271.389 186.975 C 271.542 186.907,272.249 185.685,272.961 184.259 C 273.673 182.833,274.758 180.833,275.372 179.815 C 275.986 178.796,276.890 177.130,277.381 176.111 C 277.872 175.093,278.370 174.176,278.489 174.074 C 278.607 173.972,279.438 172.472,280.336 170.741 C 281.234 169.009,282.123 167.491,282.312 167.366 C 282.501 167.241,282.646 167.035,282.634 166.907 C 282.603 166.569,283.059 165.401,283.306 165.185 C 283.423 165.083,283.995 164.083,284.578 162.963 C 285.160 161.843,286.158 159.926,286.794 158.704 C 287.431 157.481,288.038 156.398,288.143 156.296 C 288.583 155.869,290.741 151.388,290.741 150.901 C 290.741 150.609,290.925 150.370,291.151 150.370 C 291.376 150.370,291.467 150.125,291.352 149.826 C 291.237 149.526,291.344 149.068,291.590 148.807 C 292.614 147.722,292.526 141.304,291.423 136.693 C 291.305 136.198,288.756 131.063,287.182 128.148 C 286.796 127.435,286.356 126.796,286.204 126.728 C 286.051 126.660,285.926 126.369,285.926 126.080 C 285.926 125.792,285.801 125.552,285.648 125.548 C 285.495 125.544,284.954 124.630,284.444 123.519 C 283.935 122.407,283.394 121.493,283.241 121.489 C 283.088 121.485,282.963 121.318,282.963 121.118 C 282.963 120.918,282.335 119.709,281.567 118.432 C 280.799 117.156,279.840 115.444,279.437 114.630 C 279.034 113.815,278.608 113.065,278.491 112.963 C 278.374 112.861,277.708 111.694,277.010 110.370 C 276.312 109.046,275.657 107.880,275.556 107.778 C 275.149 107.371,273.704 104.502,273.704 104.101 C 273.704 103.865,273.366 103.311,272.954 102.868 C 272.542 102.425,272.015 101.432,271.784 100.661 C 271.553 99.890,271.205 99.259,271.009 99.259 C 270.814 99.259,270.738 98.938,270.841 98.546 C 270.980 98.015,270.880 97.890,270.449 98.055 C 270.041 98.212,269.935 98.112,270.087 97.714 C 270.210 97.394,270.005 96.937,269.610 96.652 C 269.228 96.377,268.813 95.685,268.688 95.113 C 268.562 94.542,268.344 94.074,268.202 94.074 C 268.060 94.074,267.615 93.326,267.213 92.411 C 266.811 91.496,266.356 90.746,266.204 90.744 C 266.051 90.742,265.926 90.491,265.926 90.185 C 265.926 89.880,265.749 89.630,265.534 89.630 C 265.318 89.630,265.243 89.465,265.367 89.264 C 265.492 89.063,265.245 88.525,264.819 88.068 C 264.394 87.611,263.950 86.859,263.834 86.396 C 263.718 85.934,263.488 85.556,263.323 85.556 C 263.157 85.556,262.912 85.056,262.778 84.444 C 262.644 83.833,262.407 83.333,262.252 83.333 C 262.098 83.333,261.653 82.669,261.263 81.856 C 260.874 81.044,260.431 80.377,260.278 80.375 C 260.125 80.372,260.000 80.182,260.000 79.951 C 260.000 79.721,259.626 78.929,259.169 78.192 C 258.712 77.455,258.322 76.769,258.304 76.667 C 258.202 76.115,257.572 74.937,257.150 74.511 C 256.884 74.241,256.667 73.783,256.667 73.492 C 256.667 73.201,256.500 72.963,256.296 72.963 C 256.093 72.963,255.926 72.713,255.926 72.407 C 255.926 72.102,255.764 71.852,255.567 71.852 C 255.370 71.852,255.304 71.602,255.422 71.296 C 255.539 70.991,255.450 70.741,255.225 70.741 C 254.999 70.741,254.815 70.481,254.815 70.163 C 254.815 69.820,254.641 69.693,254.386 69.851 C 254.092 70.032,254.023 69.864,254.166 69.317 C 254.300 68.805,254.234 68.605,253.981 68.761 C 253.731 68.916,253.660 68.724,253.789 68.234 C 253.925 67.711,253.841 67.520,253.525 67.641 C 253.122 67.796,252.795 67.231,252.676 66.176 C 252.657 66.007,252.321 65.591,251.929 65.250 C 251.538 64.909,251.087 64.213,250.929 63.704 C 250.771 63.194,250.538 62.694,250.413 62.593 C 249.847 62.132,249.258 60.671,249.489 60.298 C 249.644 60.048,249.576 59.990,249.316 60.150 C 249.063 60.306,248.889 60.179,248.889 59.837 C 248.889 59.519,248.722 59.259,248.519 59.259 C 248.315 59.259,248.148 59.009,248.148 58.704 C 248.148 58.398,247.954 58.148,247.716 58.148 C 247.478 58.148,247.387 58.045,247.514 57.918 C 247.640 57.792,247.335 57.086,246.835 56.351 C 246.335 55.615,245.926 54.802,245.926 54.544 C 245.926 54.285,245.777 54.074,245.596 54.074 C 245.414 54.074,245.161 53.657,245.033 53.148 C 244.905 52.639,244.637 52.222,244.437 52.222 C 244.238 52.222,244.074 51.972,244.074 51.667 C 244.074 51.361,243.896 51.111,243.679 51.111 C 243.452 51.111,243.384 50.795,243.519 50.370 C 243.783 49.537,243.420 49.342,243.110 50.151 M143.333 214.052 C 143.333 214.472,143.500 214.815,143.704 214.815 C 143.907 214.815,144.074 214.575,144.074 214.281 C 144.074 213.988,143.907 213.644,143.704 213.519 C 143.500 213.393,143.333 213.633,143.333 214.052 M143.800 215.405 C 143.921 215.526,143.593 216.391,143.070 217.328 C 141.682 219.814,141.791 222.568,143.338 224.074 C 143.443 224.176,143.990 225.176,144.553 226.296 C 145.117 227.417,146.247 229.500,147.066 230.926 C 147.884 232.352,148.649 233.810,148.765 234.167 C 148.881 234.523,149.140 234.815,149.342 234.815 C 149.544 234.815,149.613 235.065,149.496 235.370 C 149.378 235.676,149.418 235.926,149.583 235.926 C 149.748 235.926,150.201 236.551,150.590 237.315 C 150.978 238.079,151.380 238.787,151.481 238.889 C 151.817 239.224,153.379 242.017,153.812 243.056 C 154.045 243.616,154.376 244.074,154.548 244.074 C 154.719 244.074,154.787 243.949,154.699 243.796 C 154.044 242.657,152.222 238.369,152.222 237.968 C 152.222 237.694,152.094 237.414,151.937 237.346 C 151.780 237.278,151.175 235.972,150.592 234.444 C 150.009 232.917,149.321 231.167,149.063 230.556 C 148.805 229.944,148.292 228.528,147.924 227.407 C 147.556 226.287,147.141 225.204,147.002 225.000 C 146.864 224.796,146.634 223.922,146.491 223.057 C 146.349 222.193,146.080 221.391,145.894 221.276 C 145.708 221.161,145.556 220.587,145.556 220.000 C 145.556 219.413,145.408 218.841,145.228 218.730 C 145.048 218.619,144.788 217.776,144.650 216.856 C 144.512 215.937,144.215 215.185,143.990 215.185 C 143.764 215.185,143.679 215.284,143.800 215.405 " stroke="none" fill="#b830f8" fill-rule="evenodd"></path></g></svg>